<?xml version="1.0" encoding="utf-8" standalone="no"?>
<!DOCTYPE svg PUBLIC "-//W3C//DTD SVG 1.1//EN"
  "http://www.w3.org/Graphics/SVG/1.1/DTD/svg11.dtd">
<svg xmlns:xlink="http://www.w3.org/1999/xlink" width="864pt" height="403.2pt" viewBox="0 0 864 403.2" xmlns="http://www.w3.org/2000/svg" version="1.1">
 <metadata>
  <rdf:RDF xmlns:dc="http://purl.org/dc/elements/1.1/" xmlns:cc="http://creativecommons.org/ns#" xmlns:rdf="http://www.w3.org/1999/02/22-rdf-syntax-ns#">
   <cc:Work>
    <dc:type rdf:resource="http://purl.org/dc/dcmitype/StillImage"/>
    <dc:format>image/svg+xml</dc:format>
    <dc:creator>
     <cc:Agent>
      <dc:title>Matplotlib v3.11.2, https://matplotlib.org/</dc:title>
     </cc:Agent>
    </dc:creator>
   </cc:Work>
  </rdf:RDF>
 </metadata>
 <defs>
  <style type="text/css">*{stroke-linejoin: round; stroke-linecap: butt}</style>
 </defs>
 <g id="figure_1">
  <g id="patch_1">
   <path d="M 0 403.2 
L 864 403.2 
L 864 0 
L 0 0 
z
" style="fill: #ffffff"/>
  </g>
  <g id="axes_1">
   <g id="patch_2">
    <path d="M 77.76 310.464 
L 412.090435 310.464 
L 412.090435 84.672 
L 77.76 84.672 
z
" style="fill: #ffffff"/>
   </g>
   <g id="matplotlib.axis_1">
    <g id="xtick_1">
     <g id="line2d_1">
      <defs>
       <path id="md34a67e54e" d="M 0 0 
L 0 3.5 
" style="stroke: #000000; stroke-width: 0.8"/>
      </defs>
      <g>
       <use xlink:href="#md34a67e54e" x="77.76" y="310.464" style="stroke: #000000; stroke-width: 0.8"/>
      </g>
     </g>
     <g id="text_1">
      <!-- 0 -->
      <g transform="translate(74.260625 325.821422) scale(0.11 -0.11)">
       <defs>
        <path id="DejaVuSans-13" d="M 2034 4250 
Q 1547 4250 1301 3770 
Q 1056 3291 1056 2328 
Q 1056 1369 1301 889 
Q 1547 409 2034 409 
Q 2525 409 2770 889 
Q 3016 1369 3016 2328 
Q 3016 3291 2770 3770 
Q 2525 4250 2034 4250 
z
M 2034 4750 
Q 2819 4750 3233 4129 
Q 3647 3509 3647 2328 
Q 3647 1150 3233 529 
Q 2819 -91 2034 -91 
Q 1250 -91 836 529 
Q 422 1150 422 2328 
Q 422 3509 836 4129 
Q 1250 4750 2034 4750 
z
" transform="scale(0.015625)"/>
       </defs>
       <use xlink:href="#DejaVuSans-13"/>
      </g>
     </g>
    </g>
    <g id="xtick_2">
     <g id="line2d_2">
      <g>
       <use xlink:href="#md34a67e54e" x="135.403178" y="310.464" style="stroke: #000000; stroke-width: 0.8"/>
      </g>
     </g>
     <g id="text_2">
      <!-- 5 -->
      <g transform="translate(131.903803 325.821422) scale(0.11 -0.11)">
       <defs>
        <path id="DejaVuSans-18" d="M 691 4666 
L 3169 4666 
L 3169 4134 
L 1269 4134 
L 1269 2991 
Q 1406 3038 1543 3061 
Q 1681 3084 1819 3084 
Q 2600 3084 3056 2656 
Q 3513 2228 3513 1497 
Q 3513 744 3044 326 
Q 2575 -91 1722 -91 
Q 1428 -91 1123 -41 
Q 819 9 494 109 
L 494 744 
Q 775 591 1075 516 
Q 1375 441 1709 441 
Q 2250 441 2565 725 
Q 2881 1009 2881 1497 
Q 2881 1984 2565 2268 
Q 2250 2553 1709 2553 
Q 1456 2553 1204 2497 
Q 953 2441 691 2322 
L 691 4666 
z
" transform="scale(0.015625)"/>
       </defs>
       <use xlink:href="#DejaVuSans-18"/>
      </g>
     </g>
    </g>
    <g id="xtick_3">
     <g id="line2d_3">
      <g>
       <use xlink:href="#md34a67e54e" x="193.046357" y="310.464" style="stroke: #000000; stroke-width: 0.8"/>
      </g>
     </g>
     <g id="text_3">
      <!-- 10 -->
      <g transform="translate(186.047607 325.821422) scale(0.11 -0.11)">
       <defs>
        <path id="DejaVuSans-14" d="M 794 531 
L 1825 531 
L 1825 4091 
L 703 3866 
L 703 4441 
L 1819 4666 
L 2450 4666 
L 2450 531 
L 3481 531 
L 3481 0 
L 794 0 
L 794 531 
z
" transform="scale(0.015625)"/>
       </defs>
       <use xlink:href="#DejaVuSans-14"/>
       <use xlink:href="#DejaVuSans-13" transform="translate(63.625 0)"/>
      </g>
     </g>
    </g>
    <g id="xtick_4">
     <g id="line2d_4">
      <g>
       <use xlink:href="#md34a67e54e" x="250.689535" y="310.464" style="stroke: #000000; stroke-width: 0.8"/>
      </g>
     </g>
     <g id="text_4">
      <!-- 15 -->
      <g transform="translate(243.690785 325.821422) scale(0.11 -0.11)">
       <use xlink:href="#DejaVuSans-14"/>
       <use xlink:href="#DejaVuSans-18" transform="translate(63.625 0)"/>
      </g>
     </g>
    </g>
    <g id="xtick_5">
     <g id="line2d_5">
      <g>
       <use xlink:href="#md34a67e54e" x="308.332714" y="310.464" style="stroke: #000000; stroke-width: 0.8"/>
      </g>
     </g>
     <g id="text_5">
      <!-- 20 -->
      <g transform="translate(301.333964 325.821422) scale(0.11 -0.11)">
       <defs>
        <path id="DejaVuSans-15" d="M 1228 531 
L 3431 531 
L 3431 0 
L 469 0 
L 469 531 
Q 828 903 1448 1529 
Q 2069 2156 2228 2338 
Q 2531 2678 2651 2914 
Q 2772 3150 2772 3378 
Q 2772 3750 2511 3984 
Q 2250 4219 1831 4219 
Q 1534 4219 1204 4116 
Q 875 4013 500 3803 
L 500 4441 
Q 881 4594 1212 4672 
Q 1544 4750 1819 4750 
Q 2544 4750 2975 4387 
Q 3406 4025 3406 3419 
Q 3406 3131 3298 2873 
Q 3191 2616 2906 2266 
Q 2828 2175 2409 1742 
Q 1991 1309 1228 531 
z
" transform="scale(0.015625)"/>
       </defs>
       <use xlink:href="#DejaVuSans-15"/>
       <use xlink:href="#DejaVuSans-13" transform="translate(63.625 0)"/>
      </g>
     </g>
    </g>
    <g id="xtick_6">
     <g id="line2d_6">
      <g>
       <use xlink:href="#md34a67e54e" x="365.975892" y="310.464" style="stroke: #000000; stroke-width: 0.8"/>
      </g>
     </g>
     <g id="text_6">
      <!-- 25 -->
      <g transform="translate(358.977142 325.821422) scale(0.11 -0.11)">
       <use xlink:href="#DejaVuSans-15"/>
       <use xlink:href="#DejaVuSans-18" transform="translate(63.625 0)"/>
      </g>
     </g>
    </g>
    <g id="text_7">
     <!-- Distance along driver interval, $-\nu$ -->
     <g transform="translate(152.030217 340.824) scale(0.11 -0.11)">
      <defs>
       <path id="DejaVuSans-27" d="M 1259 4147 
L 1259 519 
L 2022 519 
Q 2988 519 3436 956 
Q 3884 1394 3884 2338 
Q 3884 3275 3436 3711 
Q 2988 4147 2022 4147 
L 1259 4147 
z
M 628 4666 
L 1925 4666 
Q 3281 4666 3915 4102 
Q 4550 3538 4550 2338 
Q 4550 1131 3912 565 
Q 3275 0 1925 0 
L 628 0 
L 628 4666 
z
" transform="scale(0.015625)"/>
       <path id="DejaVuSans-4c" d="M 603 3500 
L 1178 3500 
L 1178 0 
L 603 0 
L 603 3500 
z
M 603 4863 
L 1178 4863 
L 1178 4134 
L 603 4134 
L 603 4863 
z
" transform="scale(0.015625)"/>
       <path id="DejaVuSans-56" d="M 2834 3397 
L 2834 2853 
Q 2591 2978 2328 3040 
Q 2066 3103 1784 3103 
Q 1356 3103 1142 2972 
Q 928 2841 928 2578 
Q 928 2378 1081 2264 
Q 1234 2150 1697 2047 
L 1894 2003 
Q 2506 1872 2764 1633 
Q 3022 1394 3022 966 
Q 3022 478 2636 193 
Q 2250 -91 1575 -91 
Q 1294 -91 989 -36 
Q 684 19 347 128 
L 347 722 
Q 666 556 975 473 
Q 1284 391 1588 391 
Q 1994 391 2212 530 
Q 2431 669 2431 922 
Q 2431 1156 2273 1281 
Q 2116 1406 1581 1522 
L 1381 1569 
Q 847 1681 609 1914 
Q 372 2147 372 2553 
Q 372 3047 722 3315 
Q 1072 3584 1716 3584 
Q 2034 3584 2315 3537 
Q 2597 3491 2834 3397 
z
" transform="scale(0.015625)"/>
       <path id="DejaVuSans-57" d="M 1172 4494 
L 1172 3500 
L 2356 3500 
L 2356 3053 
L 1172 3053 
L 1172 1153 
Q 1172 725 1289 603 
Q 1406 481 1766 481 
L 2356 481 
L 2356 0 
L 1766 0 
Q 1100 0 847 248 
Q 594 497 594 1153 
L 594 3053 
L 172 3053 
L 172 3500 
L 594 3500 
L 594 4494 
L 1172 4494 
z
" transform="scale(0.015625)"/>
       <path id="DejaVuSans-44" d="M 2194 1759 
Q 1497 1759 1228 1600 
Q 959 1441 959 1056 
Q 959 750 1161 570 
Q 1363 391 1709 391 
Q 2188 391 2477 730 
Q 2766 1069 2766 1631 
L 2766 1759 
L 2194 1759 
z
M 3341 1997 
L 3341 0 
L 2766 0 
L 2766 531 
Q 2569 213 2275 61 
Q 1981 -91 1556 -91 
Q 1019 -91 701 211 
Q 384 513 384 1019 
Q 384 1609 779 1909 
Q 1175 2209 1959 2209 
L 2766 2209 
L 2766 2266 
Q 2766 2663 2505 2880 
Q 2244 3097 1772 3097 
Q 1472 3097 1187 3025 
Q 903 2953 641 2809 
L 641 3341 
Q 956 3463 1253 3523 
Q 1550 3584 1831 3584 
Q 2591 3584 2966 3190 
Q 3341 2797 3341 1997 
z
" transform="scale(0.015625)"/>
       <path id="DejaVuSans-51" d="M 3513 2113 
L 3513 0 
L 2938 0 
L 2938 2094 
Q 2938 2591 2744 2837 
Q 2550 3084 2163 3084 
Q 1697 3084 1428 2787 
Q 1159 2491 1159 1978 
L 1159 0 
L 581 0 
L 581 3500 
L 1159 3500 
L 1159 2956 
Q 1366 3272 1645 3428 
Q 1925 3584 2291 3584 
Q 2894 3584 3203 3211 
Q 3513 2838 3513 2113 
z
" transform="scale(0.015625)"/>
       <path id="DejaVuSans-46" d="M 3122 3366 
L 3122 2828 
Q 2878 2963 2633 3030 
Q 2388 3097 2138 3097 
Q 1578 3097 1268 2742 
Q 959 2388 959 1747 
Q 959 1106 1268 751 
Q 1578 397 2138 397 
Q 2388 397 2633 464 
Q 2878 531 3122 666 
L 3122 134 
Q 2881 22 2623 -34 
Q 2366 -91 2075 -91 
Q 1284 -91 818 406 
Q 353 903 353 1747 
Q 353 2603 823 3093 
Q 1294 3584 2113 3584 
Q 2378 3584 2631 3529 
Q 2884 3475 3122 3366 
z
" transform="scale(0.015625)"/>
       <path id="DejaVuSans-48" d="M 3597 1894 
L 3597 1613 
L 953 1613 
Q 991 1019 1311 708 
Q 1631 397 2203 397 
Q 2534 397 2845 478 
Q 3156 559 3463 722 
L 3463 178 
Q 3153 47 2828 -22 
Q 2503 -91 2169 -91 
Q 1331 -91 842 396 
Q 353 884 353 1716 
Q 353 2575 817 3079 
Q 1281 3584 2069 3584 
Q 2775 3584 3186 3129 
Q 3597 2675 3597 1894 
z
M 3022 2063 
Q 3016 2534 2758 2815 
Q 2500 3097 2075 3097 
Q 1594 3097 1305 2825 
Q 1016 2553 972 2059 
L 3022 2063 
z
" transform="scale(0.015625)"/>
       <path id="DejaVuSans-3" transform="scale(0.015625)"/>
       <path id="DejaVuSans-4f" d="M 603 4863 
L 1178 4863 
L 1178 0 
L 603 0 
L 603 4863 
z
" transform="scale(0.015625)"/>
       <path id="DejaVuSans-52" d="M 1959 3097 
Q 1497 3097 1228 2736 
Q 959 2375 959 1747 
Q 959 1119 1226 758 
Q 1494 397 1959 397 
Q 2419 397 2687 759 
Q 2956 1122 2956 1747 
Q 2956 2369 2687 2733 
Q 2419 3097 1959 3097 
z
M 1959 3584 
Q 2709 3584 3137 3096 
Q 3566 2609 3566 1747 
Q 3566 888 3137 398 
Q 2709 -91 1959 -91 
Q 1206 -91 779 398 
Q 353 888 353 1747 
Q 353 2609 779 3096 
Q 1206 3584 1959 3584 
z
" transform="scale(0.015625)"/>
       <path id="DejaVuSans-4a" d="M 2906 1791 
Q 2906 2416 2648 2759 
Q 2391 3103 1925 3103 
Q 1463 3103 1205 2759 
Q 947 2416 947 1791 
Q 947 1169 1205 825 
Q 1463 481 1925 481 
Q 2391 481 2648 825 
Q 2906 1169 2906 1791 
z
M 3481 434 
Q 3481 -459 3084 -895 
Q 2688 -1331 1869 -1331 
Q 1566 -1331 1297 -1286 
Q 1028 -1241 775 -1147 
L 775 -588 
Q 1028 -725 1275 -790 
Q 1522 -856 1778 -856 
Q 2344 -856 2625 -561 
Q 2906 -266 2906 331 
L 2906 616 
Q 2728 306 2450 153 
Q 2172 0 1784 0 
Q 1141 0 747 490 
Q 353 981 353 1791 
Q 353 2603 747 3093 
Q 1141 3584 1784 3584 
Q 2172 3584 2450 3431 
Q 2728 3278 2906 2969 
L 2906 3500 
L 3481 3500 
L 3481 434 
z
" transform="scale(0.015625)"/>
       <path id="DejaVuSans-47" d="M 2906 2969 
L 2906 4863 
L 3481 4863 
L 3481 0 
L 2906 0 
L 2906 525 
Q 2725 213 2448 61 
Q 2172 -91 1784 -91 
Q 1150 -91 751 415 
Q 353 922 353 1747 
Q 353 2572 751 3078 
Q 1150 3584 1784 3584 
Q 2172 3584 2448 3432 
Q 2725 3281 2906 2969 
z
M 947 1747 
Q 947 1113 1208 752 
Q 1469 391 1925 391 
Q 2381 391 2643 752 
Q 2906 1113 2906 1747 
Q 2906 2381 2643 2742 
Q 2381 3103 1925 3103 
Q 1469 3103 1208 2742 
Q 947 2381 947 1747 
z
" transform="scale(0.015625)"/>
       <path id="DejaVuSans-55" d="M 2631 2963 
Q 2534 3019 2420 3045 
Q 2306 3072 2169 3072 
Q 1681 3072 1420 2755 
Q 1159 2438 1159 1844 
L 1159 0 
L 581 0 
L 581 3500 
L 1159 3500 
L 1159 2956 
Q 1341 3275 1631 3429 
Q 1922 3584 2338 3584 
Q 2397 3584 2469 3576 
Q 2541 3569 2628 3553 
L 2631 2963 
z
" transform="scale(0.015625)"/>
       <path id="DejaVuSans-59" d="M 191 3500 
L 800 3500 
L 1894 563 
L 2988 3500 
L 3597 3500 
L 2284 0 
L 1503 0 
L 191 3500 
z
" transform="scale(0.015625)"/>
       <path id="DejaVuSans-f" d="M 750 794 
L 1409 794 
L 1409 256 
L 897 -744 
L 494 -744 
L 750 256 
L 750 794 
z
" transform="scale(0.015625)"/>
       <path id="DejaVuSans-c9c" d="M 678 2272 
L 4684 2272 
L 4684 1741 
L 678 1741 
L 678 2272 
z
" transform="scale(0.015625)"/>
       <path id="DejaVuSans-Oblique-351" d="M 959 0 
L 572 3500 
L 1191 3500 
L 1522 563 
Q 1972 950 2391 1488 
Q 2706 1891 2788 2241 
Q 2825 2406 2809 2719 
Q 2794 3091 2544 3500 
L 3125 3500 
L 3125 3500 
Q 3288 3222 3353 2834 
Q 3416 2478 3369 2234 
Q 3250 1622 2719 1075 
Q 2025 363 1572 0 
L 959 0 
z
" transform="scale(0.015625)"/>
      </defs>
      <use xlink:href="#DejaVuSans-27" transform="translate(0 0.015625)"/>
      <use xlink:href="#DejaVuSans-4c" transform="translate(77.001953 0.015625)"/>
      <use xlink:href="#DejaVuSans-56" transform="translate(104.785156 0.015625)"/>
      <use xlink:href="#DejaVuSans-57" transform="translate(156.884766 0.015625)"/>
      <use xlink:href="#DejaVuSans-44" transform="translate(196.09375 0.015625)"/>
      <use xlink:href="#DejaVuSans-51" transform="translate(257.373047 0.015625)"/>
      <use xlink:href="#DejaVuSans-46" transform="translate(320.751953 0.015625)"/>
      <use xlink:href="#DejaVuSans-48" transform="translate(375.732422 0.015625)"/>
      <use xlink:href="#DejaVuSans-3" transform="translate(437.255859 0.015625)"/>
      <use xlink:href="#DejaVuSans-44" transform="translate(469.042969 0.015625)"/>
      <use xlink:href="#DejaVuSans-4f" transform="translate(530.322266 0.015625)"/>
      <use xlink:href="#DejaVuSans-52" transform="translate(558.105469 0.015625)"/>
      <use xlink:href="#DejaVuSans-51" transform="translate(619.287109 0.015625)"/>
      <use xlink:href="#DejaVuSans-4a" transform="translate(682.666016 0.015625)"/>
      <use xlink:href="#DejaVuSans-3" transform="translate(746.142578 0.015625)"/>
      <use xlink:href="#DejaVuSans-47" transform="translate(777.929688 0.015625)"/>
      <use xlink:href="#DejaVuSans-55" transform="translate(841.40625 0.015625)"/>
      <use xlink:href="#DejaVuSans-4c" transform="translate(882.519531 0.015625)"/>
      <use xlink:href="#DejaVuSans-59" transform="translate(910.302734 0.015625)"/>
      <use xlink:href="#DejaVuSans-48" transform="translate(969.482422 0.015625)"/>
      <use xlink:href="#DejaVuSans-55" transform="translate(1031.005859 0.015625)"/>
      <use xlink:href="#DejaVuSans-3" transform="translate(1072.119141 0.015625)"/>
      <use xlink:href="#DejaVuSans-4c" transform="translate(1103.90625 0.015625)"/>
      <use xlink:href="#DejaVuSans-51" transform="translate(1131.689453 0.015625)"/>
      <use xlink:href="#DejaVuSans-57" transform="translate(1195.068359 0.015625)"/>
      <use xlink:href="#DejaVuSans-48" transform="translate(1234.277344 0.015625)"/>
      <use xlink:href="#DejaVuSans-55" transform="translate(1295.800781 0.015625)"/>
      <use xlink:href="#DejaVuSans-59" transform="translate(1336.914062 0.015625)"/>
      <use xlink:href="#DejaVuSans-44" transform="translate(1396.09375 0.015625)"/>
      <use xlink:href="#DejaVuSans-4f" transform="translate(1457.373047 0.015625)"/>
      <use xlink:href="#DejaVuSans-f" transform="translate(1485.15625 0.015625)"/>
      <use xlink:href="#DejaVuSans-3" transform="translate(1516.943359 0.015625)"/>
      <use xlink:href="#DejaVuSans-c9c" transform="translate(1548.730469 0.015625)"/>
      <use xlink:href="#DejaVuSans-Oblique-351" transform="translate(1632.519531 0.015625)"/>
     </g>
    </g>
   </g>
   <g id="matplotlib.axis_2">
    <g id="ytick_1">
     <g id="line2d_7">
      <path d="M 77.76 286.003059 
L 412.090435 286.003059 
" clip-path="url(#p5f477185ec)" style="fill: none; stroke: #b0b0b0; stroke-opacity: 0.16; stroke-width: 0.8; stroke-linecap: square"/>
     </g>
     <g id="line2d_8">
      <defs>
       <path id="mcf37dbcfd0" d="M 0 0 
L -3.5 0 
" style="stroke: #000000; stroke-width: 0.8"/>
      </defs>
      <g>
       <use xlink:href="#mcf37dbcfd0" x="77.76" y="286.003059" style="stroke: #000000; stroke-width: 0.8"/>
      </g>
     </g>
     <g id="text_8">
      <!-- −0.015 -->
      <g transform="translate(30.051406 290.18177) scale(0.11 -0.11)">
       <defs>
        <path id="DejaVuSans-11" d="M 684 794 
L 1344 794 
L 1344 0 
L 684 0 
L 684 794 
z
" transform="scale(0.015625)"/>
       </defs>
       <use xlink:href="#DejaVuSans-c9c"/>
       <use xlink:href="#DejaVuSans-13" transform="translate(83.796875 0)"/>
       <use xlink:href="#DejaVuSans-11" transform="translate(147.421875 0)"/>
       <use xlink:href="#DejaVuSans-13" transform="translate(179.203125 0)"/>
       <use xlink:href="#DejaVuSans-14" transform="translate(242.828125 0)"/>
       <use xlink:href="#DejaVuSans-18" transform="translate(306.453125 0)"/>
      </g>
     </g>
    </g>
    <g id="ytick_2">
     <g id="line2d_9">
      <path d="M 77.76 249.682189 
L 412.090435 249.682189 
" clip-path="url(#p5f477185ec)" style="fill: none; stroke: #b0b0b0; stroke-opacity: 0.16; stroke-width: 0.8; stroke-linecap: square"/>
     </g>
     <g id="line2d_10">
      <g>
       <use xlink:href="#mcf37dbcfd0" x="77.76" y="249.682189" style="stroke: #000000; stroke-width: 0.8"/>
      </g>
     </g>
     <g id="text_9">
      <!-- −0.010 -->
      <g transform="translate(30.051406 253.8609) scale(0.11 -0.11)">
       <use xlink:href="#DejaVuSans-c9c"/>
       <use xlink:href="#DejaVuSans-13" transform="translate(83.796875 0)"/>
       <use xlink:href="#DejaVuSans-11" transform="translate(147.421875 0)"/>
       <use xlink:href="#DejaVuSans-13" transform="translate(179.203125 0)"/>
       <use xlink:href="#DejaVuSans-14" transform="translate(242.828125 0)"/>
       <use xlink:href="#DejaVuSans-13" transform="translate(306.453125 0)"/>
      </g>
     </g>
    </g>
    <g id="ytick_3">
     <g id="line2d_11">
      <path d="M 77.76 213.361319 
L 412.090435 213.361319 
" clip-path="url(#p5f477185ec)" style="fill: none; stroke: #b0b0b0; stroke-opacity: 0.16; stroke-width: 0.8; stroke-linecap: square"/>
     </g>
     <g id="line2d_12">
      <g>
       <use xlink:href="#mcf37dbcfd0" x="77.76" y="213.361319" style="stroke: #000000; stroke-width: 0.8"/>
      </g>
     </g>
     <g id="text_10">
      <!-- −0.005 -->
      <g transform="translate(30.051406 217.54003) scale(0.11 -0.11)">
       <use xlink:href="#DejaVuSans-c9c"/>
       <use xlink:href="#DejaVuSans-13" transform="translate(83.796875 0)"/>
       <use xlink:href="#DejaVuSans-11" transform="translate(147.421875 0)"/>
       <use xlink:href="#DejaVuSans-13" transform="translate(179.203125 0)"/>
       <use xlink:href="#DejaVuSans-13" transform="translate(242.828125 0)"/>
       <use xlink:href="#DejaVuSans-18" transform="translate(306.453125 0)"/>
      </g>
     </g>
    </g>
    <g id="ytick_4">
     <g id="line2d_13">
      <path d="M 77.76 177.040449 
L 412.090435 177.040449 
" clip-path="url(#p5f477185ec)" style="fill: none; stroke: #b0b0b0; stroke-opacity: 0.16; stroke-width: 0.8; stroke-linecap: square"/>
     </g>
     <g id="line2d_14">
      <g>
       <use xlink:href="#mcf37dbcfd0" x="77.76" y="177.040449" style="stroke: #000000; stroke-width: 0.8"/>
      </g>
     </g>
     <g id="text_11">
      <!-- 0.000 -->
      <g transform="translate(39.269062 181.21916) scale(0.11 -0.11)">
       <use xlink:href="#DejaVuSans-13"/>
       <use xlink:href="#DejaVuSans-11" transform="translate(63.625 0)"/>
       <use xlink:href="#DejaVuSans-13" transform="translate(95.40625 0)"/>
       <use xlink:href="#DejaVuSans-13" transform="translate(159.03125 0)"/>
       <use xlink:href="#DejaVuSans-13" transform="translate(222.65625 0)"/>
      </g>
     </g>
    </g>
    <g id="ytick_5">
     <g id="line2d_15">
      <path d="M 77.76 140.719579 
L 412.090435 140.719579 
" clip-path="url(#p5f477185ec)" style="fill: none; stroke: #b0b0b0; stroke-opacity: 0.16; stroke-width: 0.8; stroke-linecap: square"/>
     </g>
     <g id="line2d_16">
      <g>
       <use xlink:href="#mcf37dbcfd0" x="77.76" y="140.719579" style="stroke: #000000; stroke-width: 0.8"/>
      </g>
     </g>
     <g id="text_12">
      <!-- 0.005 -->
      <g transform="translate(39.269062 144.89829) scale(0.11 -0.11)">
       <use xlink:href="#DejaVuSans-13"/>
       <use xlink:href="#DejaVuSans-11" transform="translate(63.625 0)"/>
       <use xlink:href="#DejaVuSans-13" transform="translate(95.40625 0)"/>
       <use xlink:href="#DejaVuSans-13" transform="translate(159.03125 0)"/>
       <use xlink:href="#DejaVuSans-18" transform="translate(222.65625 0)"/>
      </g>
     </g>
    </g>
    <g id="ytick_6">
     <g id="line2d_17">
      <path d="M 77.76 104.398709 
L 412.090435 104.398709 
" clip-path="url(#p5f477185ec)" style="fill: none; stroke: #b0b0b0; stroke-opacity: 0.16; stroke-width: 0.8; stroke-linecap: square"/>
     </g>
     <g id="line2d_18">
      <g>
       <use xlink:href="#mcf37dbcfd0" x="77.76" y="104.398709" style="stroke: #000000; stroke-width: 0.8"/>
      </g>
     </g>
     <g id="text_13">
      <!-- 0.010 -->
      <g transform="translate(39.269062 108.57742) scale(0.11 -0.11)">
       <use xlink:href="#DejaVuSans-13"/>
       <use xlink:href="#DejaVuSans-11" transform="translate(63.625 0)"/>
       <use xlink:href="#DejaVuSans-13" transform="translate(95.40625 0)"/>
       <use xlink:href="#DejaVuSans-14" transform="translate(159.03125 0)"/>
       <use xlink:href="#DejaVuSans-13" transform="translate(222.65625 0)"/>
      </g>
     </g>
    </g>
    <g id="text_14">
     <!-- $\mu_*(\nu,\epsilon)-\mu_*(\nu,0)$ -->
     <g transform="translate(23.408828 245.363) rotate(-90) scale(0.11 -0.11)">
      <defs>
       <path id="DejaVuSans-Oblique-350" d="M -84 -1331 
L 856 3500 
L 1434 3500 
L 1009 1322 
Q 997 1256 987 1175 
Q 978 1094 978 1013 
Q 978 722 1161 565 
Q 1344 409 1684 409 
Q 2147 409 2431 671 
Q 2716 934 2816 1459 
L 3213 3500 
L 3788 3500 
L 3266 809 
Q 3253 750 3248 706 
Q 3244 663 3244 628 
Q 3244 531 3283 486 
Q 3322 441 3406 441 
Q 3438 441 3492 456 
Q 3547 472 3647 513 
L 3559 50 
Q 3422 -19 3297 -55 
Q 3172 -91 3053 -91 
Q 2847 -91 2730 40 
Q 2613 172 2613 403 
Q 2438 153 2195 31 
Q 1953 -91 1625 -91 
Q 1334 -91 1117 43 
Q 900 178 831 397 
L 494 -1331 
L -84 -1331 
z
" transform="scale(0.015625)"/>
       <path id="DejaVuSans-d" d="M 3009 3897 
L 1888 3291 
L 3009 2681 
L 2828 2375 
L 1778 3009 
L 1778 1831 
L 1422 1831 
L 1422 3009 
L 372 2375 
L 191 2681 
L 1313 3291 
L 191 3897 
L 372 4206 
L 1422 3572 
L 1422 4750 
L 1778 4750 
L 1778 3572 
L 2828 4206 
L 3009 3897 
z
" transform="scale(0.015625)"/>
       <path id="DejaVuSans-b" d="M 1984 4856 
Q 1566 4138 1362 3434 
Q 1159 2731 1159 2009 
Q 1159 1288 1364 580 
Q 1569 -128 1984 -844 
L 1484 -844 
Q 1016 -109 783 600 
Q 550 1309 550 2009 
Q 550 2706 781 3412 
Q 1013 4119 1484 4856 
L 1984 4856 
z
" transform="scale(0.015625)"/>
       <path id="DejaVuSans-Oblique-349" d="M 1263 1888 
Q 925 1963 778 2166 
Q 669 2309 669 2503 
Q 669 3034 1175 3344 
Q 1575 3588 2188 3588 
Q 2425 3588 2684 3550 
Q 2944 3513 3234 3438 
L 3134 2916 
Q 2847 3006 2606 3047 
Q 2359 3088 2138 3088 
Q 1766 3088 1522 2944 
Q 1228 2772 1228 2522 
Q 1228 2356 1381 2241 
Q 1563 2103 1925 2103 
L 2409 2103 
L 2319 1628 
L 1856 1628 
Q 1425 1628 1172 1469 
Q 828 1253 828 916 
Q 828 703 1013 563 
Q 1244 388 1716 388 
Q 2006 388 2284 444 
Q 2563 503 2806 619 
L 2700 84 
Q 2403 -3 2131 -47 
Q 1859 -91 1609 -91 
Q 866 -91 516 194 
Q 250 413 250 781 
Q 250 1278 600 1584 
Q 859 1813 1263 1888 
z
" transform="scale(0.015625)"/>
       <path id="DejaVuSans-c" d="M 513 4856 
L 1013 4856 
Q 1481 4119 1714 3412 
Q 1947 2706 1947 2009 
Q 1947 1309 1714 600 
Q 1481 -109 1013 -844 
L 513 -844 
Q 928 -128 1133 580 
Q 1338 1288 1338 2009 
Q 1338 2731 1133 3434 
Q 928 4138 513 4856 
z
" transform="scale(0.015625)"/>
      </defs>
      <use xlink:href="#DejaVuSans-Oblique-350" transform="translate(0 0.125)"/>
      <use xlink:href="#DejaVuSans-d" transform="translate(77.260742 -14.874951) scale(0.7)"/>
      <use xlink:href="#DejaVuSans-b" transform="translate(128.632812 0.125)"/>
      <use xlink:href="#DejaVuSans-Oblique-351" transform="translate(167.646484 0.125)"/>
      <use xlink:href="#DejaVuSans-f" transform="translate(223.505859 0.125)"/>
      <use xlink:href="#DejaVuSans-Oblique-349" transform="translate(274.775391 0.125)"/>
      <use xlink:href="#DejaVuSans-c" transform="translate(328.828125 0.125)"/>
      <use xlink:href="#DejaVuSans-c9c" transform="translate(387.324219 0.125)"/>
      <use xlink:href="#DejaVuSans-Oblique-350" transform="translate(490.595703 0.125)"/>
      <use xlink:href="#DejaVuSans-d" transform="translate(567.856445 -14.874951) scale(0.7)"/>
      <use xlink:href="#DejaVuSans-b" transform="translate(619.228516 0.125)"/>
      <use xlink:href="#DejaVuSans-Oblique-351" transform="translate(658.242188 0.125)"/>
      <use xlink:href="#DejaVuSans-f" transform="translate(714.101562 0.125)"/>
      <use xlink:href="#DejaVuSans-13" transform="translate(765.371094 0.125)"/>
      <use xlink:href="#DejaVuSans-c" transform="translate(828.994141 0.125)"/>
     </g>
    </g>
   </g>
   <g id="line2d_19">
    <path d="M 77.76 177.040449 
L 135.403178 160.66981 
L 193.046357 145.351227 
L 250.689535 130.974805 
L 308.332714 117.441902 
L 365.975892 104.664911 
L 412.090435 94.935273 
" clip-path="url(#p5f477185ec)" style="fill: none; stroke: #b76a24; stroke-width: 1.7; stroke-linecap: square"/>
    <defs>
     <path id="mc9daf6660e" d="M 0 2 
C 0.530406 2 1.03916 1.789267 1.414214 1.414214 
C 1.789267 1.03916 2 0.530406 2 0 
C 2 -0.530406 1.789267 -1.03916 1.414214 -1.414214 
C 1.03916 -1.789267 0.530406 -2 0 -2 
C -0.530406 -2 -1.03916 -1.789267 -1.414214 -1.414214 
C -1.789267 -1.03916 -2 -0.530406 -2 0 
C -2 0.530406 -1.789267 1.03916 -1.414214 1.414214 
C -1.03916 1.789267 -0.530406 2 0 2 
z
" style="stroke: #b76a24"/>
    </defs>
    <g clip-path="url(#p5f477185ec)">
     <use xlink:href="#mc9daf6660e" x="77.76" y="177.040449" style="fill: #b76a24; stroke: #b76a24"/>
     <use xlink:href="#mc9daf6660e" x="135.403178" y="160.66981" style="fill: #b76a24; stroke: #b76a24"/>
     <use xlink:href="#mc9daf6660e" x="193.046357" y="145.351227" style="fill: #b76a24; stroke: #b76a24"/>
     <use xlink:href="#mc9daf6660e" x="250.689535" y="130.974805" style="fill: #b76a24; stroke: #b76a24"/>
     <use xlink:href="#mc9daf6660e" x="308.332714" y="117.441902" style="fill: #b76a24; stroke: #b76a24"/>
     <use xlink:href="#mc9daf6660e" x="365.975892" y="104.664911" style="fill: #b76a24; stroke: #b76a24"/>
     <use xlink:href="#mc9daf6660e" x="412.090435" y="94.935273" style="fill: #b76a24; stroke: #b76a24"/>
    </g>
   </g>
   <g id="line2d_20">
    <path d="M 77.76 177.040449 
L 135.403178 201.605553 
L 193.046357 224.588361 
L 250.689535 246.154117 
L 308.332714 266.451302 
L 365.975892 285.611862 
L 412.090435 300.200727 
" clip-path="url(#p5f477185ec)" style="fill: none; stroke: #176888; stroke-width: 1.7; stroke-linecap: square"/>
    <defs>
     <path id="md4cc360f84" d="M 0 2 
C 0.530406 2 1.03916 1.789267 1.414214 1.414214 
C 1.789267 1.03916 2 0.530406 2 0 
C 2 -0.530406 1.789267 -1.03916 1.414214 -1.414214 
C 1.03916 -1.789267 0.530406 -2 0 -2 
C -0.530406 -2 -1.03916 -1.789267 -1.414214 -1.414214 
C -1.789267 -1.03916 -2 -0.530406 -2 0 
C -2 0.530406 -1.789267 1.03916 -1.414214 1.414214 
C -1.03916 1.789267 -0.530406 2 0 2 
z
" style="stroke: #176888"/>
    </defs>
    <g clip-path="url(#p5f477185ec)">
     <use xlink:href="#md4cc360f84" x="77.76" y="177.040449" style="fill: #176888; stroke: #176888"/>
     <use xlink:href="#md4cc360f84" x="135.403178" y="201.605553" style="fill: #176888; stroke: #176888"/>
     <use xlink:href="#md4cc360f84" x="193.046357" y="224.588361" style="fill: #176888; stroke: #176888"/>
     <use xlink:href="#md4cc360f84" x="250.689535" y="246.154117" style="fill: #176888; stroke: #176888"/>
     <use xlink:href="#md4cc360f84" x="308.332714" y="266.451302" style="fill: #176888; stroke: #176888"/>
     <use xlink:href="#md4cc360f84" x="365.975892" y="285.611862" style="fill: #176888; stroke: #176888"/>
     <use xlink:href="#md4cc360f84" x="412.090435" y="300.200727" style="fill: #176888; stroke: #176888"/>
    </g>
   </g>
   <g id="line2d_21">
    <path d="M 77.76 177.040449 
L 412.090435 177.040449 
" clip-path="url(#p5f477185ec)" style="fill: none; stroke-dasharray: 2.96,1.28; stroke-dashoffset: 0; stroke: #666666; stroke-width: 0.8"/>
   </g>
   <g id="patch_3">
    <path d="M 77.76 310.464 
L 77.76 84.672 
" style="fill: none; stroke: #000000; stroke-width: 0.8; stroke-linejoin: miter; stroke-linecap: square"/>
   </g>
   <g id="patch_4">
    <path d="M 77.76 310.464 
L 412.090435 310.464 
" style="fill: none; stroke: #000000; stroke-width: 0.8; stroke-linejoin: miter; stroke-linecap: square"/>
   </g>
   <g id="patch_5">
    <path d="M 144.19663 128.146302 
Q 111.78424 152.000254 80.272313 175.191508 
" style="fill: none; stroke: #555555; stroke-linecap: round"/>
    <path d="M 84.679374 174.431368 
L 80.272313 175.191508 
L 82.308438 171.209775 
" style="fill: none; stroke: #555555; stroke-linecap: round"/>
   </g>
   <g id="text_15">
    <!-- Q is fixed exactly -->
    <g style="fill: #333333" transform="translate(112.345907 122.559144) scale(0.1 -0.1)">
     <defs>
      <path id="DejaVuSans-34" d="M 2522 4238 
Q 1834 4238 1429 3725 
Q 1025 3213 1025 2328 
Q 1025 1447 1429 934 
Q 1834 422 2522 422 
Q 3209 422 3611 934 
Q 4013 1447 4013 2328 
Q 4013 3213 3611 3725 
Q 3209 4238 2522 4238 
z
M 3406 84 
L 4238 -825 
L 3475 -825 
L 2784 -78 
Q 2681 -84 2626 -87 
Q 2572 -91 2522 -91 
Q 1538 -91 948 567 
Q 359 1225 359 2328 
Q 359 3434 948 4092 
Q 1538 4750 2522 4750 
Q 3503 4750 4090 4092 
Q 4678 3434 4678 2328 
Q 4678 1516 4351 937 
Q 4025 359 3406 84 
z
" transform="scale(0.015625)"/>
      <path id="DejaVuSans-13af" d="M 3431 3500 
L 3431 0 
L 2853 0 
L 2853 3053 
L 1275 3053 
L 1275 0 
L 697 0 
L 697 3053 
L 147 3053 
L 147 3500 
L 697 3500 
L 697 3744 
Q 697 4316 967 4589 
Q 1238 4863 1797 4863 
L 2375 4863 
L 2375 4384 
L 1825 4384 
Q 1516 4384 1395 4259 
Q 1275 4134 1275 3809 
L 1275 3500 
L 3431 3500 
z
M 2853 4856 
L 3431 4856 
L 3431 4128 
L 2853 4128 
L 2853 4856 
z
" transform="scale(0.015625)"/>
      <path id="DejaVuSans-5b" d="M 3513 3500 
L 2247 1797 
L 3578 0 
L 2900 0 
L 1881 1375 
L 863 0 
L 184 0 
L 1544 1831 
L 300 3500 
L 978 3500 
L 1906 2253 
L 2834 3500 
L 3513 3500 
z
" transform="scale(0.015625)"/>
      <path id="DejaVuSans-5c" d="M 2059 -325 
Q 1816 -950 1584 -1140 
Q 1353 -1331 966 -1331 
L 506 -1331 
L 506 -850 
L 844 -850 
Q 1081 -850 1212 -737 
Q 1344 -625 1503 -206 
L 1606 56 
L 191 3500 
L 800 3500 
L 1894 763 
L 2988 3500 
L 3597 3500 
L 2059 -325 
z
" transform="scale(0.015625)"/>
     </defs>
     <use xlink:href="#DejaVuSans-34"/>
     <use xlink:href="#DejaVuSans-3" transform="translate(78.71875 0)"/>
     <use xlink:href="#DejaVuSans-4c" transform="translate(110.5 0)"/>
     <use xlink:href="#DejaVuSans-56" transform="translate(138.28125 0)"/>
     <use xlink:href="#DejaVuSans-3" transform="translate(190.375 0)"/>
     <use xlink:href="#DejaVuSans-13af" transform="translate(222.15625 0)"/>
     <use xlink:href="#DejaVuSans-5b" transform="translate(285.140625 0)"/>
     <use xlink:href="#DejaVuSans-48" transform="translate(341.25 0)"/>
     <use xlink:href="#DejaVuSans-47" transform="translate(402.78125 0)"/>
     <use xlink:href="#DejaVuSans-3" transform="translate(466.265625 0)"/>
     <use xlink:href="#DejaVuSans-48" transform="translate(498.046875 0)"/>
     <use xlink:href="#DejaVuSans-5b" transform="translate(557.828125 0)"/>
     <use xlink:href="#DejaVuSans-44" transform="translate(617.015625 0)"/>
     <use xlink:href="#DejaVuSans-46" transform="translate(678.296875 0)"/>
     <use xlink:href="#DejaVuSans-57" transform="translate(733.28125 0)"/>
     <use xlink:href="#DejaVuSans-4f" transform="translate(772.484375 0)"/>
     <use xlink:href="#DejaVuSans-5c" transform="translate(800.265625 0)"/>
    </g>
   </g>
   <g id="text_16">
    <!-- A. Displacement from the original cusp arc -->
    <g transform="translate(85.490874 78.672) scale(0.132 -0.132)">
     <defs>
      <path id="DejaVuSans-Bold-24" d="M 3419 850 
L 1538 850 
L 1241 0 
L 31 0 
L 1759 4666 
L 3194 4666 
L 4922 0 
L 3713 0 
L 3419 850 
z
M 1838 1716 
L 3116 1716 
L 2478 3572 
L 1838 1716 
z
" transform="scale(0.015625)"/>
      <path id="DejaVuSans-Bold-11" d="M 653 1209 
L 1778 1209 
L 1778 0 
L 653 0 
L 653 1209 
z
" transform="scale(0.015625)"/>
      <path id="DejaVuSans-Bold-3" transform="scale(0.015625)"/>
      <path id="DejaVuSans-Bold-27" d="M 1791 3756 
L 1791 909 
L 2222 909 
Q 2959 909 3348 1275 
Q 3738 1641 3738 2338 
Q 3738 3031 3350 3393 
Q 2963 3756 2222 3756 
L 1791 3756 
z
M 588 4666 
L 1856 4666 
Q 2919 4666 3439 4514 
Q 3959 4363 4331 4000 
Q 4659 3684 4818 3271 
Q 4978 2859 4978 2338 
Q 4978 1809 4818 1395 
Q 4659 981 4331 666 
Q 3956 303 3431 151 
Q 2906 0 1856 0 
L 588 0 
L 588 4666 
z
" transform="scale(0.015625)"/>
      <path id="DejaVuSans-Bold-4c" d="M 538 3500 
L 1656 3500 
L 1656 0 
L 538 0 
L 538 3500 
z
M 538 4863 
L 1656 4863 
L 1656 3950 
L 538 3950 
L 538 4863 
z
" transform="scale(0.015625)"/>
      <path id="DejaVuSans-Bold-56" d="M 3272 3391 
L 3272 2541 
Q 2913 2691 2578 2766 
Q 2244 2841 1947 2841 
Q 1628 2841 1473 2761 
Q 1319 2681 1319 2516 
Q 1319 2381 1436 2309 
Q 1553 2238 1856 2203 
L 2053 2175 
Q 2913 2066 3209 1816 
Q 3506 1566 3506 1031 
Q 3506 472 3093 190 
Q 2681 -91 1863 -91 
Q 1516 -91 1145 -36 
Q 775 19 384 128 
L 384 978 
Q 719 816 1070 734 
Q 1422 653 1784 653 
Q 2113 653 2278 743 
Q 2444 834 2444 1013 
Q 2444 1163 2330 1236 
Q 2216 1309 1875 1350 
L 1678 1375 
Q 931 1469 631 1722 
Q 331 1975 331 2491 
Q 331 3047 712 3315 
Q 1094 3584 1881 3584 
Q 2191 3584 2531 3537 
Q 2872 3491 3272 3391 
z
" transform="scale(0.015625)"/>
      <path id="DejaVuSans-Bold-53" d="M 1656 506 
L 1656 -1331 
L 538 -1331 
L 538 3500 
L 1656 3500 
L 1656 2988 
Q 1888 3294 2169 3439 
Q 2450 3584 2816 3584 
Q 3463 3584 3878 3070 
Q 4294 2556 4294 1747 
Q 4294 938 3878 423 
Q 3463 -91 2816 -91 
Q 2450 -91 2169 54 
Q 1888 200 1656 506 
z
M 2400 2772 
Q 2041 2772 1848 2508 
Q 1656 2244 1656 1747 
Q 1656 1250 1848 986 
Q 2041 722 2400 722 
Q 2759 722 2948 984 
Q 3138 1247 3138 1747 
Q 3138 2247 2948 2509 
Q 2759 2772 2400 2772 
z
" transform="scale(0.015625)"/>
      <path id="DejaVuSans-Bold-4f" d="M 538 4863 
L 1656 4863 
L 1656 0 
L 538 0 
L 538 4863 
z
" transform="scale(0.015625)"/>
      <path id="DejaVuSans-Bold-44" d="M 2106 1575 
Q 1756 1575 1579 1456 
Q 1403 1338 1403 1106 
Q 1403 894 1545 773 
Q 1688 653 1941 653 
Q 2256 653 2472 879 
Q 2688 1106 2688 1447 
L 2688 1575 
L 2106 1575 
z
M 3816 1997 
L 3816 0 
L 2688 0 
L 2688 519 
Q 2463 200 2181 54 
Q 1900 -91 1497 -91 
Q 953 -91 614 226 
Q 275 544 275 1050 
Q 275 1666 698 1953 
Q 1122 2241 2028 2241 
L 2688 2241 
L 2688 2328 
Q 2688 2594 2478 2717 
Q 2269 2841 1825 2841 
Q 1466 2841 1156 2769 
Q 847 2697 581 2553 
L 581 3406 
Q 941 3494 1303 3539 
Q 1666 3584 2028 3584 
Q 2975 3584 3395 3211 
Q 3816 2838 3816 1997 
z
" transform="scale(0.015625)"/>
      <path id="DejaVuSans-Bold-46" d="M 3366 3391 
L 3366 2478 
Q 3138 2634 2908 2709 
Q 2678 2784 2431 2784 
Q 1963 2784 1702 2511 
Q 1441 2238 1441 1747 
Q 1441 1256 1702 982 
Q 1963 709 2431 709 
Q 2694 709 2930 787 
Q 3166 866 3366 1019 
L 3366 103 
Q 3103 6 2833 -42 
Q 2563 -91 2291 -91 
Q 1344 -91 809 395 
Q 275 881 275 1747 
Q 275 2613 809 3098 
Q 1344 3584 2291 3584 
Q 2566 3584 2833 3536 
Q 3100 3488 3366 3391 
z
" transform="scale(0.015625)"/>
      <path id="DejaVuSans-Bold-48" d="M 4031 1759 
L 4031 1441 
L 1416 1441 
Q 1456 1047 1700 850 
Q 1944 653 2381 653 
Q 2734 653 3104 758 
Q 3475 863 3866 1075 
L 3866 213 
Q 3469 63 3072 -14 
Q 2675 -91 2278 -91 
Q 1328 -91 801 392 
Q 275 875 275 1747 
Q 275 2603 792 3093 
Q 1309 3584 2216 3584 
Q 3041 3584 3536 3087 
Q 4031 2591 4031 1759 
z
M 2881 2131 
Q 2881 2450 2695 2645 
Q 2509 2841 2209 2841 
Q 1884 2841 1681 2658 
Q 1478 2475 1428 2131 
L 2881 2131 
z
" transform="scale(0.015625)"/>
      <path id="DejaVuSans-Bold-50" d="M 3781 2919 
Q 3994 3244 4286 3414 
Q 4578 3584 4928 3584 
Q 5531 3584 5847 3212 
Q 6163 2841 6163 2131 
L 6163 0 
L 5038 0 
L 5038 1825 
Q 5041 1866 5042 1909 
Q 5044 1953 5044 2034 
Q 5044 2406 4934 2573 
Q 4825 2741 4581 2741 
Q 4263 2741 4089 2478 
Q 3916 2216 3909 1719 
L 3909 0 
L 2784 0 
L 2784 1825 
Q 2784 2406 2684 2573 
Q 2584 2741 2328 2741 
Q 2006 2741 1831 2477 
Q 1656 2213 1656 1722 
L 1656 0 
L 531 0 
L 531 3500 
L 1656 3500 
L 1656 2988 
Q 1863 3284 2130 3434 
Q 2397 3584 2719 3584 
Q 3081 3584 3359 3409 
Q 3638 3234 3781 2919 
z
" transform="scale(0.015625)"/>
      <path id="DejaVuSans-Bold-51" d="M 4056 2131 
L 4056 0 
L 2931 0 
L 2931 347 
L 2931 1631 
Q 2931 2084 2911 2256 
Q 2891 2428 2841 2509 
Q 2775 2619 2662 2680 
Q 2550 2741 2406 2741 
Q 2056 2741 1856 2470 
Q 1656 2200 1656 1722 
L 1656 0 
L 538 0 
L 538 3500 
L 1656 3500 
L 1656 2988 
Q 1909 3294 2193 3439 
Q 2478 3584 2822 3584 
Q 3428 3584 3742 3212 
Q 4056 2841 4056 2131 
z
" transform="scale(0.015625)"/>
      <path id="DejaVuSans-Bold-57" d="M 1759 4494 
L 1759 3500 
L 2913 3500 
L 2913 2700 
L 1759 2700 
L 1759 1216 
Q 1759 972 1856 886 
Q 1953 800 2241 800 
L 2816 800 
L 2816 0 
L 1856 0 
Q 1194 0 917 276 
Q 641 553 641 1216 
L 641 2700 
L 84 2700 
L 84 3500 
L 641 3500 
L 641 4494 
L 1759 4494 
z
" transform="scale(0.015625)"/>
      <path id="DejaVuSans-Bold-49" d="M 2841 4863 
L 2841 4128 
L 2222 4128 
Q 1984 4128 1890 4042 
Q 1797 3956 1797 3744 
L 1797 3500 
L 2753 3500 
L 2753 2700 
L 1797 2700 
L 1797 0 
L 678 0 
L 678 2700 
L 122 2700 
L 122 3500 
L 678 3500 
L 678 3744 
Q 678 4316 997 4589 
Q 1316 4863 1984 4863 
L 2841 4863 
z
" transform="scale(0.015625)"/>
      <path id="DejaVuSans-Bold-55" d="M 3138 2547 
Q 2991 2616 2845 2648 
Q 2700 2681 2553 2681 
Q 2122 2681 1889 2404 
Q 1656 2128 1656 1613 
L 1656 0 
L 538 0 
L 538 3500 
L 1656 3500 
L 1656 2925 
Q 1872 3269 2151 3426 
Q 2431 3584 2822 3584 
Q 2878 3584 2943 3579 
Q 3009 3575 3134 3559 
L 3138 2547 
z
" transform="scale(0.015625)"/>
      <path id="DejaVuSans-Bold-52" d="M 2203 2784 
Q 1831 2784 1636 2517 
Q 1441 2250 1441 1747 
Q 1441 1244 1636 976 
Q 1831 709 2203 709 
Q 2569 709 2762 976 
Q 2956 1244 2956 1747 
Q 2956 2250 2762 2517 
Q 2569 2784 2203 2784 
z
M 2203 3584 
Q 3106 3584 3614 3096 
Q 4122 2609 4122 1747 
Q 4122 884 3614 396 
Q 3106 -91 2203 -91 
Q 1297 -91 786 396 
Q 275 884 275 1747 
Q 275 2609 786 3096 
Q 1297 3584 2203 3584 
z
" transform="scale(0.015625)"/>
      <path id="DejaVuSans-Bold-4b" d="M 4056 2131 
L 4056 0 
L 2931 0 
L 2931 347 
L 2931 1625 
Q 2931 2084 2911 2256 
Q 2891 2428 2841 2509 
Q 2775 2619 2662 2680 
Q 2550 2741 2406 2741 
Q 2056 2741 1856 2470 
Q 1656 2200 1656 1722 
L 1656 0 
L 538 0 
L 538 4863 
L 1656 4863 
L 1656 2988 
Q 1909 3294 2193 3439 
Q 2478 3584 2822 3584 
Q 3428 3584 3742 3212 
Q 4056 2841 4056 2131 
z
" transform="scale(0.015625)"/>
      <path id="DejaVuSans-Bold-4a" d="M 2919 594 
Q 2688 288 2409 144 
Q 2131 0 1766 0 
Q 1125 0 706 504 
Q 288 1009 288 1791 
Q 288 2575 706 3076 
Q 1125 3578 1766 3578 
Q 2131 3578 2409 3434 
Q 2688 3291 2919 2981 
L 2919 3500 
L 4044 3500 
L 4044 353 
Q 4044 -491 3511 -936 
Q 2978 -1381 1966 -1381 
Q 1638 -1381 1331 -1331 
Q 1025 -1281 716 -1178 
L 716 -306 
Q 1009 -475 1290 -558 
Q 1572 -641 1856 -641 
Q 2406 -641 2662 -400 
Q 2919 -159 2919 353 
L 2919 594 
z
M 2181 2772 
Q 1834 2772 1640 2515 
Q 1447 2259 1447 1791 
Q 1447 1309 1634 1061 
Q 1822 813 2181 813 
Q 2531 813 2725 1069 
Q 2919 1325 2919 1791 
Q 2919 2259 2725 2515 
Q 2531 2772 2181 2772 
z
" transform="scale(0.015625)"/>
      <path id="DejaVuSans-Bold-58" d="M 500 1363 
L 500 3500 
L 1625 3500 
L 1625 3150 
Q 1625 2866 1622 2436 
Q 1619 2006 1619 1863 
Q 1619 1441 1641 1255 
Q 1663 1069 1716 984 
Q 1784 875 1895 815 
Q 2006 756 2150 756 
Q 2500 756 2700 1025 
Q 2900 1294 2900 1772 
L 2900 3500 
L 4019 3500 
L 4019 0 
L 2900 0 
L 2900 506 
Q 2647 200 2364 54 
Q 2081 -91 1741 -91 
Q 1134 -91 817 281 
Q 500 653 500 1363 
z
" transform="scale(0.015625)"/>
     </defs>
     <use xlink:href="#DejaVuSans-Bold-24"/>
     <use xlink:href="#DejaVuSans-Bold-11" transform="translate(79.25 0)"/>
     <use xlink:href="#DejaVuSans-Bold-3" transform="translate(117.234375 0)"/>
     <use xlink:href="#DejaVuSans-Bold-27" transform="translate(152.046875 0)"/>
     <use xlink:href="#DejaVuSans-Bold-4c" transform="translate(235.0625 0)"/>
     <use xlink:href="#DejaVuSans-Bold-56" transform="translate(269.34375 0)"/>
     <use xlink:href="#DejaVuSans-Bold-53" transform="translate(328.859375 0)"/>
     <use xlink:href="#DejaVuSans-Bold-4f" transform="translate(400.4375 0)"/>
     <use xlink:href="#DejaVuSans-Bold-44" transform="translate(434.71875 0)"/>
     <use xlink:href="#DejaVuSans-Bold-46" transform="translate(502.203125 0)"/>
     <use xlink:href="#DejaVuSans-Bold-48" transform="translate(561.484375 0)"/>
     <use xlink:href="#DejaVuSans-Bold-50" transform="translate(629.3125 0)"/>
     <use xlink:href="#DejaVuSans-Bold-48" transform="translate(733.515625 0)"/>
     <use xlink:href="#DejaVuSans-Bold-51" transform="translate(801.34375 0)"/>
     <use xlink:href="#DejaVuSans-Bold-57" transform="translate(872.53125 0)"/>
     <use xlink:href="#DejaVuSans-Bold-3" transform="translate(920.328125 0)"/>
     <use xlink:href="#DejaVuSans-Bold-49" transform="translate(955.140625 0)"/>
     <use xlink:href="#DejaVuSans-Bold-55" transform="translate(998.640625 0)"/>
     <use xlink:href="#DejaVuSans-Bold-52" transform="translate(1047.953125 0)"/>
     <use xlink:href="#DejaVuSans-Bold-50" transform="translate(1116.65625 0)"/>
     <use xlink:href="#DejaVuSans-Bold-3" transform="translate(1220.859375 0)"/>
     <use xlink:href="#DejaVuSans-Bold-57" transform="translate(1255.671875 0)"/>
     <use xlink:href="#DejaVuSans-Bold-4b" transform="translate(1303.46875 0)"/>
     <use xlink:href="#DejaVuSans-Bold-48" transform="translate(1374.65625 0)"/>
     <use xlink:href="#DejaVuSans-Bold-3" transform="translate(1442.484375 0)"/>
     <use xlink:href="#DejaVuSans-Bold-52" transform="translate(1477.296875 0)"/>
     <use xlink:href="#DejaVuSans-Bold-55" transform="translate(1546 0)"/>
     <use xlink:href="#DejaVuSans-Bold-4c" transform="translate(1595.3125 0)"/>
     <use xlink:href="#DejaVuSans-Bold-4a" transform="translate(1629.59375 0)"/>
     <use xlink:href="#DejaVuSans-Bold-4c" transform="translate(1701.171875 0)"/>
     <use xlink:href="#DejaVuSans-Bold-51" transform="translate(1735.453125 0)"/>
     <use xlink:href="#DejaVuSans-Bold-44" transform="translate(1806.640625 0)"/>
     <use xlink:href="#DejaVuSans-Bold-4f" transform="translate(1874.125 0)"/>
     <use xlink:href="#DejaVuSans-Bold-3" transform="translate(1908.40625 0)"/>
     <use xlink:href="#DejaVuSans-Bold-46" transform="translate(1943.21875 0)"/>
     <use xlink:href="#DejaVuSans-Bold-58" transform="translate(2002.5 0)"/>
     <use xlink:href="#DejaVuSans-Bold-56" transform="translate(2073.6875 0)"/>
     <use xlink:href="#DejaVuSans-Bold-53" transform="translate(2133.203125 0)"/>
     <use xlink:href="#DejaVuSans-Bold-3" transform="translate(2204.78125 0)"/>
     <use xlink:href="#DejaVuSans-Bold-44" transform="translate(2239.59375 0)"/>
     <use xlink:href="#DejaVuSans-Bold-55" transform="translate(2307.078125 0)"/>
     <use xlink:href="#DejaVuSans-Bold-46" transform="translate(2356.390625 0)"/>
    </g>
   </g>
   <g id="legend_1">
    <g id="patch_6">
     <path d="M 84.76 305.464 
L 158.96 305.464 
Q 160.96 305.464 160.96 303.464 
L 160.96 274.462437 
Q 160.96 272.462437 158.96 272.462437 
L 84.76 272.462437 
Q 82.76 272.462437 82.76 274.462437 
L 82.76 303.464 
Q 82.76 305.464 84.76 305.464 
z
" style="fill: #ffffff; opacity: 0.8; stroke: #cccccc; stroke-linejoin: miter"/>
    </g>
    <g id="line2d_22">
     <path d="M 86.76 280.560875 
L 96.76 280.560875 
L 106.76 280.560875 
" style="fill: none; stroke: #b76a24; stroke-width: 1.7; stroke-linecap: square"/>
     <g>
      <use xlink:href="#mc9daf6660e" x="96.76" y="280.560875" style="fill: #b76a24; stroke: #b76a24"/>
     </g>
    </g>
    <g id="text_17">
     <!-- $\epsilon=-1/2$ -->
     <g transform="translate(114.76 284.060875) scale(0.1 -0.1)">
      <defs>
       <path id="DejaVuSans-20" d="M 678 2906 
L 4684 2906 
L 4684 2381 
L 678 2381 
L 678 2906 
z
M 678 1631 
L 4684 1631 
L 4684 1100 
L 678 1100 
L 678 1631 
z
" transform="scale(0.015625)"/>
       <path id="DejaVuSans-12" d="M 1625 4666 
L 2156 4666 
L 531 -594 
L 0 -594 
L 1625 4666 
z
" transform="scale(0.015625)"/>
      </defs>
      <use xlink:href="#DejaVuSans-Oblique-349" transform="translate(0 0.78125)"/>
      <use xlink:href="#DejaVuSans-20" transform="translate(73.535156 0.78125)"/>
      <use xlink:href="#DejaVuSans-c9c" transform="translate(176.806641 0.78125)"/>
      <use xlink:href="#DejaVuSans-14" transform="translate(260.595703 0.78125)"/>
      <use xlink:href="#DejaVuSans-12" transform="translate(324.21875 0.78125)"/>
      <use xlink:href="#DejaVuSans-15" transform="translate(357.910156 0.78125)"/>
     </g>
    </g>
    <g id="line2d_23">
     <path d="M 86.76 295.561656 
L 96.76 295.561656 
L 106.76 295.561656 
" style="fill: none; stroke: #176888; stroke-width: 1.7; stroke-linecap: square"/>
     <g>
      <use xlink:href="#md4cc360f84" x="96.76" y="295.561656" style="fill: #176888; stroke: #176888"/>
     </g>
    </g>
    <g id="text_18">
     <!-- $\epsilon=+1/2$ -->
     <g transform="translate(114.76 299.061656) scale(0.1 -0.1)">
      <defs>
       <path id="DejaVuSans-e" d="M 2944 4013 
L 2944 2272 
L 4684 2272 
L 4684 1741 
L 2944 1741 
L 2944 0 
L 2419 0 
L 2419 1741 
L 678 1741 
L 678 2272 
L 2419 2272 
L 2419 4013 
L 2944 4013 
z
" transform="scale(0.015625)"/>
      </defs>
      <use xlink:href="#DejaVuSans-Oblique-349" transform="translate(0 0.78125)"/>
      <use xlink:href="#DejaVuSans-20" transform="translate(73.535156 0.78125)"/>
      <use xlink:href="#DejaVuSans-e" transform="translate(176.806641 0.78125)"/>
      <use xlink:href="#DejaVuSans-14" transform="translate(260.595703 0.78125)"/>
      <use xlink:href="#DejaVuSans-12" transform="translate(324.21875 0.78125)"/>
      <use xlink:href="#DejaVuSans-15" transform="translate(357.910156 0.78125)"/>
     </g>
    </g>
   </g>
  </g>
  <g id="axes_2">
   <g id="patch_7">
    <path d="M 512.389565 310.464 
L 846.72 310.464 
L 846.72 84.672 
L 512.389565 84.672 
z
" style="fill: #ffffff"/>
   </g>
   <g id="matplotlib.axis_3">
    <g id="xtick_7">
     <g id="line2d_24">
      <g>
       <use xlink:href="#md34a67e54e" x="512.389565" y="310.464" style="stroke: #000000; stroke-width: 0.8"/>
      </g>
     </g>
     <g id="text_19">
      <!-- 0 -->
      <g transform="translate(508.89019 325.821422) scale(0.11 -0.11)">
       <use xlink:href="#DejaVuSans-13"/>
      </g>
     </g>
    </g>
    <g id="xtick_8">
     <g id="line2d_25">
      <g>
       <use xlink:href="#md34a67e54e" x="570.032744" y="310.464" style="stroke: #000000; stroke-width: 0.8"/>
      </g>
     </g>
     <g id="text_20">
      <!-- 5 -->
      <g transform="translate(566.533369 325.821422) scale(0.11 -0.11)">
       <use xlink:href="#DejaVuSans-18"/>
      </g>
     </g>
    </g>
    <g id="xtick_9">
     <g id="line2d_26">
      <g>
       <use xlink:href="#md34a67e54e" x="627.675922" y="310.464" style="stroke: #000000; stroke-width: 0.8"/>
      </g>
     </g>
     <g id="text_21">
      <!-- 10 -->
      <g transform="translate(620.677172 325.821422) scale(0.11 -0.11)">
       <use xlink:href="#DejaVuSans-14"/>
       <use xlink:href="#DejaVuSans-13" transform="translate(63.625 0)"/>
      </g>
     </g>
    </g>
    <g id="xtick_10">
     <g id="line2d_27">
      <g>
       <use xlink:href="#md34a67e54e" x="685.3191" y="310.464" style="stroke: #000000; stroke-width: 0.8"/>
      </g>
     </g>
     <g id="text_22">
      <!-- 15 -->
      <g transform="translate(678.32035 325.821422) scale(0.11 -0.11)">
       <use xlink:href="#DejaVuSans-14"/>
       <use xlink:href="#DejaVuSans-18" transform="translate(63.625 0)"/>
      </g>
     </g>
    </g>
    <g id="xtick_11">
     <g id="line2d_28">
      <g>
       <use xlink:href="#md34a67e54e" x="742.962279" y="310.464" style="stroke: #000000; stroke-width: 0.8"/>
      </g>
     </g>
     <g id="text_23">
      <!-- 20 -->
      <g transform="translate(735.963529 325.821422) scale(0.11 -0.11)">
       <use xlink:href="#DejaVuSans-15"/>
       <use xlink:href="#DejaVuSans-13" transform="translate(63.625 0)"/>
      </g>
     </g>
    </g>
    <g id="xtick_12">
     <g id="line2d_29">
      <g>
       <use xlink:href="#md34a67e54e" x="800.605457" y="310.464" style="stroke: #000000; stroke-width: 0.8"/>
      </g>
     </g>
     <g id="text_24">
      <!-- 25 -->
      <g transform="translate(793.606707 325.821422) scale(0.11 -0.11)">
       <use xlink:href="#DejaVuSans-15"/>
       <use xlink:href="#DejaVuSans-18" transform="translate(63.625 0)"/>
      </g>
     </g>
    </g>
    <g id="text_25">
     <!-- Distance along driver interval, $-\nu$ -->
     <g transform="translate(586.659783 340.824) scale(0.11 -0.11)">
      <use xlink:href="#DejaVuSans-27" transform="translate(0 0.015625)"/>
      <use xlink:href="#DejaVuSans-4c" transform="translate(77.001953 0.015625)"/>
      <use xlink:href="#DejaVuSans-56" transform="translate(104.785156 0.015625)"/>
      <use xlink:href="#DejaVuSans-57" transform="translate(156.884766 0.015625)"/>
      <use xlink:href="#DejaVuSans-44" transform="translate(196.09375 0.015625)"/>
      <use xlink:href="#DejaVuSans-51" transform="translate(257.373047 0.015625)"/>
      <use xlink:href="#DejaVuSans-46" transform="translate(320.751953 0.015625)"/>
      <use xlink:href="#DejaVuSans-48" transform="translate(375.732422 0.015625)"/>
      <use xlink:href="#DejaVuSans-3" transform="translate(437.255859 0.015625)"/>
      <use xlink:href="#DejaVuSans-44" transform="translate(469.042969 0.015625)"/>
      <use xlink:href="#DejaVuSans-4f" transform="translate(530.322266 0.015625)"/>
      <use xlink:href="#DejaVuSans-52" transform="translate(558.105469 0.015625)"/>
      <use xlink:href="#DejaVuSans-51" transform="translate(619.287109 0.015625)"/>
      <use xlink:href="#DejaVuSans-4a" transform="translate(682.666016 0.015625)"/>
      <use xlink:href="#DejaVuSans-3" transform="translate(746.142578 0.015625)"/>
      <use xlink:href="#DejaVuSans-47" transform="translate(777.929688 0.015625)"/>
      <use xlink:href="#DejaVuSans-55" transform="translate(841.40625 0.015625)"/>
      <use xlink:href="#DejaVuSans-4c" transform="translate(882.519531 0.015625)"/>
      <use xlink:href="#DejaVuSans-59" transform="translate(910.302734 0.015625)"/>
      <use xlink:href="#DejaVuSans-48" transform="translate(969.482422 0.015625)"/>
      <use xlink:href="#DejaVuSans-55" transform="translate(1031.005859 0.015625)"/>
      <use xlink:href="#DejaVuSans-3" transform="translate(1072.119141 0.015625)"/>
      <use xlink:href="#DejaVuSans-4c" transform="translate(1103.90625 0.015625)"/>
      <use xlink:href="#DejaVuSans-51" transform="translate(1131.689453 0.015625)"/>
      <use xlink:href="#DejaVuSans-57" transform="translate(1195.068359 0.015625)"/>
      <use xlink:href="#DejaVuSans-48" transform="translate(1234.277344 0.015625)"/>
      <use xlink:href="#DejaVuSans-55" transform="translate(1295.800781 0.015625)"/>
      <use xlink:href="#DejaVuSans-59" transform="translate(1336.914062 0.015625)"/>
      <use xlink:href="#DejaVuSans-44" transform="translate(1396.09375 0.015625)"/>
      <use xlink:href="#DejaVuSans-4f" transform="translate(1457.373047 0.015625)"/>
      <use xlink:href="#DejaVuSans-f" transform="translate(1485.15625 0.015625)"/>
      <use xlink:href="#DejaVuSans-3" transform="translate(1516.943359 0.015625)"/>
      <use xlink:href="#DejaVuSans-c9c" transform="translate(1548.730469 0.015625)"/>
      <use xlink:href="#DejaVuSans-Oblique-351" transform="translate(1632.519531 0.015625)"/>
     </g>
    </g>
   </g>
   <g id="matplotlib.axis_4">
    <g id="ytick_7">
     <g id="line2d_30">
      <path d="M 512.389565 295.381516 
L 846.72 295.381516 
" clip-path="url(#pa21e59ba8a)" style="fill: none; stroke: #b0b0b0; stroke-opacity: 0.16; stroke-width: 0.8; stroke-linecap: square"/>
     </g>
     <g id="line2d_31">
      <g>
       <use xlink:href="#mcf37dbcfd0" x="512.389565" y="295.381516" style="stroke: #000000; stroke-width: 0.8"/>
      </g>
     </g>
     <g id="text_26">
      <!-- −0.03 -->
      <g transform="translate(471.679721 299.560227) scale(0.11 -0.11)">
       <defs>
        <path id="DejaVuSans-16" d="M 2597 2516 
Q 3050 2419 3304 2112 
Q 3559 1806 3559 1356 
Q 3559 666 3084 287 
Q 2609 -91 1734 -91 
Q 1441 -91 1130 -33 
Q 819 25 488 141 
L 488 750 
Q 750 597 1062 519 
Q 1375 441 1716 441 
Q 2309 441 2620 675 
Q 2931 909 2931 1356 
Q 2931 1769 2642 2001 
Q 2353 2234 1838 2234 
L 1294 2234 
L 1294 2753 
L 1863 2753 
Q 2328 2753 2575 2939 
Q 2822 3125 2822 3475 
Q 2822 3834 2567 4026 
Q 2313 4219 1838 4219 
Q 1578 4219 1281 4162 
Q 984 4106 628 3988 
L 628 4550 
Q 988 4650 1302 4700 
Q 1616 4750 1894 4750 
Q 2613 4750 3031 4423 
Q 3450 4097 3450 3541 
Q 3450 3153 3228 2886 
Q 3006 2619 2597 2516 
z
" transform="scale(0.015625)"/>
       </defs>
       <use xlink:href="#DejaVuSans-c9c"/>
       <use xlink:href="#DejaVuSans-13" transform="translate(83.796875 0)"/>
       <use xlink:href="#DejaVuSans-11" transform="translate(147.421875 0)"/>
       <use xlink:href="#DejaVuSans-13" transform="translate(179.203125 0)"/>
       <use xlink:href="#DejaVuSans-16" transform="translate(242.828125 0)"/>
      </g>
     </g>
    </g>
    <g id="ytick_8">
     <g id="line2d_32">
      <path d="M 512.389565 255.927516 
L 846.72 255.927516 
" clip-path="url(#pa21e59ba8a)" style="fill: none; stroke: #b0b0b0; stroke-opacity: 0.16; stroke-width: 0.8; stroke-linecap: square"/>
     </g>
     <g id="line2d_33">
      <g>
       <use xlink:href="#mcf37dbcfd0" x="512.389565" y="255.927516" style="stroke: #000000; stroke-width: 0.8"/>
      </g>
     </g>
     <g id="text_27">
      <!-- −0.02 -->
      <g transform="translate(471.679721 260.106227) scale(0.11 -0.11)">
       <use xlink:href="#DejaVuSans-c9c"/>
       <use xlink:href="#DejaVuSans-13" transform="translate(83.796875 0)"/>
       <use xlink:href="#DejaVuSans-11" transform="translate(147.421875 0)"/>
       <use xlink:href="#DejaVuSans-13" transform="translate(179.203125 0)"/>
       <use xlink:href="#DejaVuSans-15" transform="translate(242.828125 0)"/>
      </g>
     </g>
    </g>
    <g id="ytick_9">
     <g id="line2d_34">
      <path d="M 512.389565 216.473515 
L 846.72 216.473515 
" clip-path="url(#pa21e59ba8a)" style="fill: none; stroke: #b0b0b0; stroke-opacity: 0.16; stroke-width: 0.8; stroke-linecap: square"/>
     </g>
     <g id="line2d_35">
      <g>
       <use xlink:href="#mcf37dbcfd0" x="512.389565" y="216.473515" style="stroke: #000000; stroke-width: 0.8"/>
      </g>
     </g>
     <g id="text_28">
      <!-- −0.01 -->
      <g transform="translate(471.679721 220.652226) scale(0.11 -0.11)">
       <use xlink:href="#DejaVuSans-c9c"/>
       <use xlink:href="#DejaVuSans-13" transform="translate(83.796875 0)"/>
       <use xlink:href="#DejaVuSans-11" transform="translate(147.421875 0)"/>
       <use xlink:href="#DejaVuSans-13" transform="translate(179.203125 0)"/>
       <use xlink:href="#DejaVuSans-14" transform="translate(242.828125 0)"/>
      </g>
     </g>
    </g>
    <g id="ytick_10">
     <g id="line2d_36">
      <path d="M 512.389565 177.019515 
L 846.72 177.019515 
" clip-path="url(#pa21e59ba8a)" style="fill: none; stroke: #b0b0b0; stroke-opacity: 0.16; stroke-width: 0.8; stroke-linecap: square"/>
     </g>
     <g id="line2d_37">
      <g>
       <use xlink:href="#mcf37dbcfd0" x="512.389565" y="177.019515" style="stroke: #000000; stroke-width: 0.8"/>
      </g>
     </g>
     <g id="text_29">
      <!-- 0.00 -->
      <g transform="translate(480.897378 181.198226) scale(0.11 -0.11)">
       <use xlink:href="#DejaVuSans-13"/>
       <use xlink:href="#DejaVuSans-11" transform="translate(63.625 0)"/>
       <use xlink:href="#DejaVuSans-13" transform="translate(95.40625 0)"/>
       <use xlink:href="#DejaVuSans-13" transform="translate(159.03125 0)"/>
      </g>
     </g>
    </g>
    <g id="ytick_11">
     <g id="line2d_38">
      <path d="M 512.389565 137.565515 
L 846.72 137.565515 
" clip-path="url(#pa21e59ba8a)" style="fill: none; stroke: #b0b0b0; stroke-opacity: 0.16; stroke-width: 0.8; stroke-linecap: square"/>
     </g>
     <g id="line2d_39">
      <g>
       <use xlink:href="#mcf37dbcfd0" x="512.389565" y="137.565515" style="stroke: #000000; stroke-width: 0.8"/>
      </g>
     </g>
     <g id="text_30">
      <!-- 0.01 -->
      <g transform="translate(480.897378 141.744225) scale(0.11 -0.11)">
       <use xlink:href="#DejaVuSans-13"/>
       <use xlink:href="#DejaVuSans-11" transform="translate(63.625 0)"/>
       <use xlink:href="#DejaVuSans-13" transform="translate(95.40625 0)"/>
       <use xlink:href="#DejaVuSans-14" transform="translate(159.03125 0)"/>
      </g>
     </g>
    </g>
    <g id="ytick_12">
     <g id="line2d_40">
      <path d="M 512.389565 98.111514 
L 846.72 98.111514 
" clip-path="url(#pa21e59ba8a)" style="fill: none; stroke: #b0b0b0; stroke-opacity: 0.16; stroke-width: 0.8; stroke-linecap: square"/>
     </g>
     <g id="line2d_41">
      <g>
       <use xlink:href="#mcf37dbcfd0" x="512.389565" y="98.111514" style="stroke: #000000; stroke-width: 0.8"/>
      </g>
     </g>
     <g id="text_31">
      <!-- 0.02 -->
      <g transform="translate(480.897378 102.290225) scale(0.11 -0.11)">
       <use xlink:href="#DejaVuSans-13"/>
       <use xlink:href="#DejaVuSans-11" transform="translate(63.625 0)"/>
       <use xlink:href="#DejaVuSans-13" transform="translate(95.40625 0)"/>
       <use xlink:href="#DejaVuSans-15" transform="translate(159.03125 0)"/>
      </g>
     </g>
    </g>
    <g id="text_32">
     <!-- $100\,[C(\nu,\epsilon)/C(\nu,0)-1]$ (%) -->
     <g transform="translate(465.037143 271.158) rotate(-90) scale(0.11 -0.11)">
      <defs>
       <path id="DejaVuSans-3e" d="M 550 4863 
L 1875 4863 
L 1875 4416 
L 1125 4416 
L 1125 -397 
L 1875 -397 
L 1875 -844 
L 550 -844 
L 550 4863 
z
" transform="scale(0.015625)"/>
       <path id="DejaVuSans-Oblique-26" d="M 4447 4306 
L 4319 3641 
Q 4019 3944 3683 4091 
Q 3347 4238 2956 4238 
Q 2422 4238 2017 3981 
Q 1613 3725 1319 3200 
Q 1131 2863 1032 2486 
Q 934 2109 934 1728 
Q 934 1091 1264 756 
Q 1594 422 2222 422 
Q 2656 422 3056 561 
Q 3456 700 3834 978 
L 3688 231 
Q 3316 72 2936 -9 
Q 2556 -91 2175 -91 
Q 1278 -91 773 396 
Q 269 884 269 1753 
Q 269 2309 461 2846 
Q 653 3384 1013 3828 
Q 1394 4300 1883 4525 
Q 2372 4750 3022 4750 
Q 3422 4750 3780 4639 
Q 4138 4528 4447 4306 
z
" transform="scale(0.015625)"/>
       <path id="DejaVuSans-40" d="M 1947 4863 
L 1947 -844 
L 622 -844 
L 622 -397 
L 1369 -397 
L 1369 4416 
L 622 4416 
L 622 4863 
L 1947 4863 
z
" transform="scale(0.015625)"/>
       <path id="DejaVuSans-8" d="M 4653 2053 
Q 4381 2053 4226 1822 
Q 4072 1591 4072 1178 
Q 4072 772 4226 539 
Q 4381 306 4653 306 
Q 4919 306 5073 539 
Q 5228 772 5228 1178 
Q 5228 1588 5073 1820 
Q 4919 2053 4653 2053 
z
M 4653 2450 
Q 5147 2450 5437 2106 
Q 5728 1763 5728 1178 
Q 5728 594 5436 251 
Q 5144 -91 4653 -91 
Q 4153 -91 3862 251 
Q 3572 594 3572 1178 
Q 3572 1766 3864 2108 
Q 4156 2450 4653 2450 
z
M 1428 4353 
Q 1159 4353 1004 4120 
Q 850 3888 850 3481 
Q 850 3069 1003 2837 
Q 1156 2606 1428 2606 
Q 1700 2606 1854 2837 
Q 2009 3069 2009 3481 
Q 2009 3884 1853 4118 
Q 1697 4353 1428 4353 
z
M 4250 4750 
L 4750 4750 
L 1831 -91 
L 1331 -91 
L 4250 4750 
z
M 1428 4750 
Q 1922 4750 2215 4408 
Q 2509 4066 2509 3481 
Q 2509 2891 2217 2550 
Q 1925 2209 1428 2209 
Q 931 2209 642 2551 
Q 353 2894 353 3481 
Q 353 4063 643 4406 
Q 934 4750 1428 4750 
z
" transform="scale(0.015625)"/>
      </defs>
      <use xlink:href="#DejaVuSans-14" transform="translate(0 0.015625)"/>
      <use xlink:href="#DejaVuSans-13" transform="translate(63.623047 0.015625)"/>
      <use xlink:href="#DejaVuSans-13" transform="translate(127.246094 0.015625)"/>
      <use xlink:href="#DejaVuSans-3e" transform="translate(207.104817 0.015625)"/>
      <use xlink:href="#DejaVuSans-Oblique-26" transform="translate(246.118489 0.015625)"/>
      <use xlink:href="#DejaVuSans-b" transform="translate(315.942708 0.015625)"/>
      <use xlink:href="#DejaVuSans-Oblique-351" transform="translate(354.956379 0.015625)"/>
      <use xlink:href="#DejaVuSans-f" transform="translate(410.815754 0.015625)"/>
      <use xlink:href="#DejaVuSans-Oblique-349" transform="translate(462.085286 0.015625)"/>
      <use xlink:href="#DejaVuSans-c" transform="translate(516.13802 0.015625)"/>
      <use xlink:href="#DejaVuSans-12" transform="translate(555.151692 0.015625)"/>
      <use xlink:href="#DejaVuSans-Oblique-26" transform="translate(588.843098 0.015625)"/>
      <use xlink:href="#DejaVuSans-b" transform="translate(658.667317 0.015625)"/>
      <use xlink:href="#DejaVuSans-Oblique-351" transform="translate(697.680989 0.015625)"/>
      <use xlink:href="#DejaVuSans-f" transform="translate(753.540364 0.015625)"/>
      <use xlink:href="#DejaVuSans-13" transform="translate(804.809895 0.015625)"/>
      <use xlink:href="#DejaVuSans-c" transform="translate(868.432942 0.015625)"/>
      <use xlink:href="#DejaVuSans-c9c" transform="translate(926.929036 0.015625)"/>
      <use xlink:href="#DejaVuSans-14" transform="translate(1030.20052 0.015625)"/>
      <use xlink:href="#DejaVuSans-40" transform="translate(1093.823567 0.015625)"/>
      <use xlink:href="#DejaVuSans-3" transform="translate(1132.837239 0.015625)"/>
      <use xlink:href="#DejaVuSans-b" transform="translate(1164.624348 0.015625)"/>
      <use xlink:href="#DejaVuSans-8" transform="translate(1203.63802 0.015625)"/>
      <use xlink:href="#DejaVuSans-c" transform="translate(1298.657551 0.015625)"/>
     </g>
    </g>
   </g>
   <g id="line2d_42">
    <path d="M 512.389565 94.935273 
L 570.032744 97.42847 
L 627.675922 100.07278 
L 685.3191 102.750336 
L 742.962279 105.38778 
L 800.605457 107.940822 
L 846.72 109.905032 
" clip-path="url(#pa21e59ba8a)" style="fill: none; stroke: #b76a24; stroke-width: 1.7; stroke-linecap: square"/>
    <g clip-path="url(#pa21e59ba8a)">
     <use xlink:href="#mc9daf6660e" x="512.389565" y="94.935273" style="fill: #b76a24; stroke: #b76a24"/>
     <use xlink:href="#mc9daf6660e" x="570.032744" y="97.42847" style="fill: #b76a24; stroke: #b76a24"/>
     <use xlink:href="#mc9daf6660e" x="627.675922" y="100.07278" style="fill: #b76a24; stroke: #b76a24"/>
     <use xlink:href="#mc9daf6660e" x="685.3191" y="102.750336" style="fill: #b76a24; stroke: #b76a24"/>
     <use xlink:href="#mc9daf6660e" x="742.962279" y="105.38778" style="fill: #b76a24; stroke: #b76a24"/>
     <use xlink:href="#mc9daf6660e" x="800.605457" y="107.940822" style="fill: #b76a24; stroke: #b76a24"/>
     <use xlink:href="#mc9daf6660e" x="846.72" y="109.905032" style="fill: #b76a24; stroke: #b76a24"/>
    </g>
   </g>
   <g id="line2d_43">
    <path d="M 512.389565 300.200727 
L 570.032744 296.488371 
L 627.675922 292.534574 
L 685.3191 288.521699 
L 742.962279 284.563374 
L 800.605457 280.728355 
L 846.72 277.776325 
" clip-path="url(#pa21e59ba8a)" style="fill: none; stroke: #176888; stroke-width: 1.7; stroke-linecap: square"/>
    <g clip-path="url(#pa21e59ba8a)">
     <use xlink:href="#md4cc360f84" x="512.389565" y="300.200727" style="fill: #176888; stroke: #176888"/>
     <use xlink:href="#md4cc360f84" x="570.032744" y="296.488371" style="fill: #176888; stroke: #176888"/>
     <use xlink:href="#md4cc360f84" x="627.675922" y="292.534574" style="fill: #176888; stroke: #176888"/>
     <use xlink:href="#md4cc360f84" x="685.3191" y="288.521699" style="fill: #176888; stroke: #176888"/>
     <use xlink:href="#md4cc360f84" x="742.962279" y="284.563374" style="fill: #176888; stroke: #176888"/>
     <use xlink:href="#md4cc360f84" x="800.605457" y="280.728355" style="fill: #176888; stroke: #176888"/>
     <use xlink:href="#md4cc360f84" x="846.72" y="277.776325" style="fill: #176888; stroke: #176888"/>
    </g>
   </g>
   <g id="line2d_44">
    <path d="M 512.389565 177.019515 
L 846.72 177.019515 
" clip-path="url(#pa21e59ba8a)" style="fill: none; stroke-dasharray: 2.96,1.28; stroke-dashoffset: 0; stroke: #666666; stroke-width: 0.8"/>
   </g>
   <g id="patch_8">
    <path d="M 512.389565 310.464 
L 512.389565 84.672 
" style="fill: none; stroke: #000000; stroke-width: 0.8; stroke-linejoin: miter; stroke-linecap: square"/>
   </g>
   <g id="patch_9">
    <path d="M 512.389565 310.464 
L 846.72 310.464 
" style="fill: none; stroke: #000000; stroke-width: 0.8; stroke-linejoin: miter; stroke-linecap: square"/>
   </g>
   <g id="text_33">
    <!-- B. Change in the leading width coefficient -->
    <g transform="translate(523.716408 78.672) scale(0.132 -0.132)">
     <defs>
      <path id="DejaVuSans-Bold-25" d="M 2456 2859 
Q 2741 2859 2887 2984 
Q 3034 3109 3034 3353 
Q 3034 3594 2887 3720 
Q 2741 3847 2456 3847 
L 1791 3847 
L 1791 2859 
L 2456 2859 
z
M 2497 819 
Q 2859 819 3042 972 
Q 3225 1125 3225 1434 
Q 3225 1738 3044 1889 
Q 2863 2041 2497 2041 
L 1791 2041 
L 1791 819 
L 2497 819 
z
M 3616 2497 
Q 4003 2384 4215 2081 
Q 4428 1778 4428 1338 
Q 4428 663 3972 331 
Q 3516 0 2584 0 
L 588 0 
L 588 4666 
L 2394 4666 
Q 3366 4666 3802 4372 
Q 4238 4078 4238 3431 
Q 4238 3091 4078 2852 
Q 3919 2613 3616 2497 
z
" transform="scale(0.015625)"/>
      <path id="DejaVuSans-Bold-26" d="M 4288 256 
Q 3956 84 3597 -3 
Q 3238 -91 2847 -91 
Q 1681 -91 1000 561 
Q 319 1213 319 2328 
Q 319 3447 1000 4098 
Q 1681 4750 2847 4750 
Q 3238 4750 3597 4662 
Q 3956 4575 4288 4403 
L 4288 3438 
Q 3953 3666 3628 3772 
Q 3303 3878 2944 3878 
Q 2300 3878 1931 3465 
Q 1563 3053 1563 2328 
Q 1563 1606 1931 1193 
Q 2300 781 2944 781 
Q 3303 781 3628 887 
Q 3953 994 4288 1222 
L 4288 256 
z
" transform="scale(0.015625)"/>
      <path id="DejaVuSans-Bold-47" d="M 2919 2988 
L 2919 4863 
L 4044 4863 
L 4044 0 
L 2919 0 
L 2919 506 
Q 2688 197 2409 53 
Q 2131 -91 1766 -91 
Q 1119 -91 703 423 
Q 288 938 288 1747 
Q 288 2556 703 3070 
Q 1119 3584 1766 3584 
Q 2128 3584 2408 3439 
Q 2688 3294 2919 2988 
z
M 2181 722 
Q 2541 722 2730 984 
Q 2919 1247 2919 1747 
Q 2919 2247 2730 2509 
Q 2541 2772 2181 2772 
Q 1825 2772 1636 2509 
Q 1447 2247 1447 1747 
Q 1447 1247 1636 984 
Q 1825 722 2181 722 
z
" transform="scale(0.015625)"/>
      <path id="DejaVuSans-Bold-5a" d="M 225 3500 
L 1313 3500 
L 1900 1088 
L 2491 3500 
L 3425 3500 
L 4013 1113 
L 4603 3500 
L 5691 3500 
L 4769 0 
L 3547 0 
L 2956 2406 
L 2369 0 
L 1147 0 
L 225 3500 
z
" transform="scale(0.015625)"/>
      <path id="DejaVuSans-Bold-13ad" d="M 2841 4863 
L 2841 4128 
L 2222 4128 
Q 1984 4128 1891 4044 
Q 1797 3956 1797 3744 
L 1797 3500 
L 3078 3500 
L 3078 3744 
Q 3078 4316 3397 4588 
Q 3716 4863 4384 4863 
L 5241 4863 
L 5241 4128 
L 4622 4128 
Q 4388 4128 4297 4044 
Q 4206 3956 4206 3744 
L 4206 3500 
L 6600 3500 
L 6600 0 
L 5472 0 
L 5472 2700 
L 4206 2700 
L 4206 0 
L 4197 0 
L 3078 0 
L 3078 2700 
L 1797 2700 
L 1797 0 
L 678 0 
L 678 2700 
L 122 2700 
L 122 3500 
L 678 3500 
L 678 3744 
Q 678 4316 997 4588 
Q 1316 4863 1984 4863 
L 2841 4863 
z
M 5472 4863 
L 6600 4863 
L 6600 3950 
L 5472 3950 
L 5472 4863 
z
" transform="scale(0.015625)"/>
     </defs>
     <use xlink:href="#DejaVuSans-Bold-25"/>
     <use xlink:href="#DejaVuSans-Bold-11" transform="translate(76.21875 0)"/>
     <use xlink:href="#DejaVuSans-Bold-3" transform="translate(114.203125 0)"/>
     <use xlink:href="#DejaVuSans-Bold-26" transform="translate(149.015625 0)"/>
     <use xlink:href="#DejaVuSans-Bold-4b" transform="translate(222.40625 0)"/>
     <use xlink:href="#DejaVuSans-Bold-44" transform="translate(293.59375 0)"/>
     <use xlink:href="#DejaVuSans-Bold-51" transform="translate(361.078125 0)"/>
     <use xlink:href="#DejaVuSans-Bold-4a" transform="translate(432.265625 0)"/>
     <use xlink:href="#DejaVuSans-Bold-48" transform="translate(503.84375 0)"/>
     <use xlink:href="#DejaVuSans-Bold-3" transform="translate(571.671875 0)"/>
     <use xlink:href="#DejaVuSans-Bold-4c" transform="translate(606.484375 0)"/>
     <use xlink:href="#DejaVuSans-Bold-51" transform="translate(640.765625 0)"/>
     <use xlink:href="#DejaVuSans-Bold-3" transform="translate(711.953125 0)"/>
     <use xlink:href="#DejaVuSans-Bold-57" transform="translate(746.765625 0)"/>
     <use xlink:href="#DejaVuSans-Bold-4b" transform="translate(794.5625 0)"/>
     <use xlink:href="#DejaVuSans-Bold-48" transform="translate(865.75 0)"/>
     <use xlink:href="#DejaVuSans-Bold-3" transform="translate(933.578125 0)"/>
     <use xlink:href="#DejaVuSans-Bold-4f" transform="translate(968.390625 0)"/>
     <use xlink:href="#DejaVuSans-Bold-48" transform="translate(1002.671875 0)"/>
     <use xlink:href="#DejaVuSans-Bold-44" transform="translate(1070.5 0)"/>
     <use xlink:href="#DejaVuSans-Bold-47" transform="translate(1137.984375 0)"/>
     <use xlink:href="#DejaVuSans-Bold-4c" transform="translate(1209.5625 0)"/>
     <use xlink:href="#DejaVuSans-Bold-51" transform="translate(1243.84375 0)"/>
     <use xlink:href="#DejaVuSans-Bold-4a" transform="translate(1315.03125 0)"/>
     <use xlink:href="#DejaVuSans-Bold-3" transform="translate(1386.609375 0)"/>
     <use xlink:href="#DejaVuSans-Bold-5a" transform="translate(1421.421875 0)"/>
     <use xlink:href="#DejaVuSans-Bold-4c" transform="translate(1513.8125 0)"/>
     <use xlink:href="#DejaVuSans-Bold-47" transform="translate(1548.09375 0)"/>
     <use xlink:href="#DejaVuSans-Bold-57" transform="translate(1619.671875 0)"/>
     <use xlink:href="#DejaVuSans-Bold-4b" transform="translate(1667.46875 0)"/>
     <use xlink:href="#DejaVuSans-Bold-3" transform="translate(1738.65625 0)"/>
     <use xlink:href="#DejaVuSans-Bold-46" transform="translate(1773.46875 0)"/>
     <use xlink:href="#DejaVuSans-Bold-52" transform="translate(1832.75 0)"/>
     <use xlink:href="#DejaVuSans-Bold-48" transform="translate(1901.453125 0)"/>
     <use xlink:href="#DejaVuSans-Bold-13ad" transform="translate(1969.28125 0)"/>
     <use xlink:href="#DejaVuSans-Bold-46" transform="translate(2080.8125 0)"/>
     <use xlink:href="#DejaVuSans-Bold-4c" transform="translate(2140.09375 0)"/>
     <use xlink:href="#DejaVuSans-Bold-48" transform="translate(2174.375 0)"/>
     <use xlink:href="#DejaVuSans-Bold-51" transform="translate(2242.203125 0)"/>
     <use xlink:href="#DejaVuSans-Bold-57" transform="translate(2313.390625 0)"/>
    </g>
   </g>
   <g id="legend_2">
    <g id="patch_10">
     <path d="M 519.389565 214.068781 
L 593.589565 214.068781 
Q 595.589565 214.068781 595.589565 212.068781 
L 595.589565 183.067219 
Q 595.589565 181.067219 593.589565 181.067219 
L 519.389565 181.067219 
Q 517.389565 181.067219 517.389565 183.067219 
L 517.389565 212.068781 
Q 517.389565 214.068781 519.389565 214.068781 
z
" style="fill: #ffffff; opacity: 0.8; stroke: #cccccc; stroke-linejoin: miter"/>
    </g>
    <g id="line2d_45">
     <path d="M 521.389565 189.165656 
L 531.389565 189.165656 
L 541.389565 189.165656 
" style="fill: none; stroke: #b76a24; stroke-width: 1.7; stroke-linecap: square"/>
     <g>
      <use xlink:href="#mc9daf6660e" x="531.389565" y="189.165656" style="fill: #b76a24; stroke: #b76a24"/>
     </g>
    </g>
    <g id="text_34">
     <!-- $\epsilon=-1/2$ -->
     <g transform="translate(549.389565 192.665656) scale(0.1 -0.1)">
      <use xlink:href="#DejaVuSans-Oblique-349" transform="translate(0 0.78125)"/>
      <use xlink:href="#DejaVuSans-20" transform="translate(73.535156 0.78125)"/>
      <use xlink:href="#DejaVuSans-c9c" transform="translate(176.806641 0.78125)"/>
      <use xlink:href="#DejaVuSans-14" transform="translate(260.595703 0.78125)"/>
      <use xlink:href="#DejaVuSans-12" transform="translate(324.21875 0.78125)"/>
      <use xlink:href="#DejaVuSans-15" transform="translate(357.910156 0.78125)"/>
     </g>
    </g>
    <g id="line2d_46">
     <path d="M 521.389565 204.166437 
L 531.389565 204.166437 
L 541.389565 204.166437 
" style="fill: none; stroke: #176888; stroke-width: 1.7; stroke-linecap: square"/>
     <g>
      <use xlink:href="#md4cc360f84" x="531.389565" y="204.166437" style="fill: #176888; stroke: #176888"/>
     </g>
    </g>
    <g id="text_35">
     <!-- $\epsilon=+1/2$ -->
     <g transform="translate(549.389565 207.666437) scale(0.1 -0.1)">
      <use xlink:href="#DejaVuSans-Oblique-349" transform="translate(0 0.78125)"/>
      <use xlink:href="#DejaVuSans-20" transform="translate(73.535156 0.78125)"/>
      <use xlink:href="#DejaVuSans-e" transform="translate(176.806641 0.78125)"/>
      <use xlink:href="#DejaVuSans-14" transform="translate(260.595703 0.78125)"/>
      <use xlink:href="#DejaVuSans-12" transform="translate(324.21875 0.78125)"/>
      <use xlink:href="#DejaVuSans-15" transform="translate(357.910156 0.78125)"/>
     </g>
    </g>
   </g>
  </g>
  <g id="text_36">
   <!-- A fixed quartic cusp, a changing cusp arc and opening -->
   <g transform="translate(214.45 24.2535) scale(0.16 -0.16)">
    <defs>
     <path id="DejaVuSans-24" d="M 2188 4044 
L 1331 1722 
L 3047 1722 
L 2188 4044 
z
M 1831 4666 
L 2547 4666 
L 4325 0 
L 3669 0 
L 3244 1197 
L 1141 1197 
L 716 0 
L 50 0 
L 1831 4666 
z
" transform="scale(0.015625)"/>
     <path id="DejaVuSans-54" d="M 947 1747 
Q 947 1113 1208 752 
Q 1469 391 1925 391 
Q 2381 391 2643 752 
Q 2906 1113 2906 1747 
Q 2906 2381 2643 2742 
Q 2381 3103 1925 3103 
Q 1469 3103 1208 2742 
Q 947 2381 947 1747 
z
M 2906 525 
Q 2725 213 2448 61 
Q 2172 -91 1784 -91 
Q 1150 -91 751 415 
Q 353 922 353 1747 
Q 353 2572 751 3078 
Q 1150 3584 1784 3584 
Q 2172 3584 2448 3432 
Q 2725 3281 2906 2969 
L 2906 3500 
L 3481 3500 
L 3481 -1331 
L 2906 -1331 
L 2906 525 
z
" transform="scale(0.015625)"/>
     <path id="DejaVuSans-58" d="M 544 1381 
L 544 3500 
L 1119 3500 
L 1119 1403 
Q 1119 906 1312 657 
Q 1506 409 1894 409 
Q 2359 409 2629 706 
Q 2900 1003 2900 1516 
L 2900 3500 
L 3475 3500 
L 3475 0 
L 2900 0 
L 2900 538 
Q 2691 219 2414 64 
Q 2138 -91 1772 -91 
Q 1169 -91 856 284 
Q 544 659 544 1381 
z
M 1991 3584 
L 1991 3584 
z
" transform="scale(0.015625)"/>
     <path id="DejaVuSans-53" d="M 1159 525 
L 1159 -1331 
L 581 -1331 
L 581 3500 
L 1159 3500 
L 1159 2969 
Q 1341 3281 1617 3432 
Q 1894 3584 2278 3584 
Q 2916 3584 3314 3078 
Q 3713 2572 3713 1747 
Q 3713 922 3314 415 
Q 2916 -91 2278 -91 
Q 1894 -91 1617 61 
Q 1341 213 1159 525 
z
M 3116 1747 
Q 3116 2381 2855 2742 
Q 2594 3103 2138 3103 
Q 1681 3103 1420 2742 
Q 1159 2381 1159 1747 
Q 1159 1113 1420 752 
Q 1681 391 2138 391 
Q 2594 391 2855 752 
Q 3116 1113 3116 1747 
z
" transform="scale(0.015625)"/>
     <path id="DejaVuSans-4b" d="M 3513 2113 
L 3513 0 
L 2938 0 
L 2938 2094 
Q 2938 2591 2744 2837 
Q 2550 3084 2163 3084 
Q 1697 3084 1428 2787 
Q 1159 2491 1159 1978 
L 1159 0 
L 581 0 
L 581 4863 
L 1159 4863 
L 1159 2956 
Q 1366 3272 1645 3428 
Q 1925 3584 2291 3584 
Q 2894 3584 3203 3211 
Q 3513 2838 3513 2113 
z
" transform="scale(0.015625)"/>
    </defs>
    <use xlink:href="#DejaVuSans-24"/>
    <use xlink:href="#DejaVuSans-3" transform="translate(68.40625 0)"/>
    <use xlink:href="#DejaVuSans-13af" transform="translate(100.1875 0)"/>
    <use xlink:href="#DejaVuSans-5b" transform="translate(163.171875 0)"/>
    <use xlink:href="#DejaVuSans-48" transform="translate(219.28125 0)"/>
    <use xlink:href="#DejaVuSans-47" transform="translate(280.8125 0)"/>
    <use xlink:href="#DejaVuSans-3" transform="translate(344.296875 0)"/>
    <use xlink:href="#DejaVuSans-54" transform="translate(376.078125 0)"/>
    <use xlink:href="#DejaVuSans-58" transform="translate(439.5625 0)"/>
    <use xlink:href="#DejaVuSans-44" transform="translate(502.9375 0)"/>
    <use xlink:href="#DejaVuSans-55" transform="translate(564.21875 0)"/>
    <use xlink:href="#DejaVuSans-57" transform="translate(605.328125 0)"/>
    <use xlink:href="#DejaVuSans-4c" transform="translate(644.53125 0)"/>
    <use xlink:href="#DejaVuSans-46" transform="translate(672.3125 0)"/>
    <use xlink:href="#DejaVuSans-3" transform="translate(727.296875 0)"/>
    <use xlink:href="#DejaVuSans-46" transform="translate(759.078125 0)"/>
    <use xlink:href="#DejaVuSans-58" transform="translate(814.0625 0)"/>
    <use xlink:href="#DejaVuSans-56" transform="translate(877.4375 0)"/>
    <use xlink:href="#DejaVuSans-53" transform="translate(929.53125 0)"/>
    <use xlink:href="#DejaVuSans-f" transform="translate(993.015625 0)"/>
    <use xlink:href="#DejaVuSans-3" transform="translate(1024.796875 0)"/>
    <use xlink:href="#DejaVuSans-44" transform="translate(1056.578125 0)"/>
    <use xlink:href="#DejaVuSans-3" transform="translate(1117.859375 0)"/>
    <use xlink:href="#DejaVuSans-46" transform="translate(1149.640625 0)"/>
    <use xlink:href="#DejaVuSans-4b" transform="translate(1204.625 0)"/>
    <use xlink:href="#DejaVuSans-44" transform="translate(1268 0)"/>
    <use xlink:href="#DejaVuSans-51" transform="translate(1329.28125 0)"/>
    <use xlink:href="#DejaVuSans-4a" transform="translate(1392.65625 0)"/>
    <use xlink:href="#DejaVuSans-4c" transform="translate(1456.140625 0)"/>
    <use xlink:href="#DejaVuSans-51" transform="translate(1483.921875 0)"/>
    <use xlink:href="#DejaVuSans-4a" transform="translate(1547.296875 0)"/>
    <use xlink:href="#DejaVuSans-3" transform="translate(1610.78125 0)"/>
    <use xlink:href="#DejaVuSans-46" transform="translate(1642.5625 0)"/>
    <use xlink:href="#DejaVuSans-58" transform="translate(1697.546875 0)"/>
    <use xlink:href="#DejaVuSans-56" transform="translate(1760.921875 0)"/>
    <use xlink:href="#DejaVuSans-53" transform="translate(1813.015625 0)"/>
    <use xlink:href="#DejaVuSans-3" transform="translate(1876.5 0)"/>
    <use xlink:href="#DejaVuSans-44" transform="translate(1908.28125 0)"/>
    <use xlink:href="#DejaVuSans-55" transform="translate(1969.5625 0)"/>
    <use xlink:href="#DejaVuSans-46" transform="translate(2008.46875 0)"/>
    <use xlink:href="#DejaVuSans-3" transform="translate(2063.453125 0)"/>
    <use xlink:href="#DejaVuSans-44" transform="translate(2095.234375 0)"/>
    <use xlink:href="#DejaVuSans-51" transform="translate(2156.515625 0)"/>
    <use xlink:href="#DejaVuSans-47" transform="translate(2219.890625 0)"/>
    <use xlink:href="#DejaVuSans-3" transform="translate(2283.375 0)"/>
    <use xlink:href="#DejaVuSans-52" transform="translate(2315.15625 0)"/>
    <use xlink:href="#DejaVuSans-53" transform="translate(2376.34375 0)"/>
    <use xlink:href="#DejaVuSans-48" transform="translate(2439.828125 0)"/>
    <use xlink:href="#DejaVuSans-51" transform="translate(2501.359375 0)"/>
    <use xlink:href="#DejaVuSans-4c" transform="translate(2564.734375 0)"/>
    <use xlink:href="#DejaVuSans-51" transform="translate(2592.515625 0)"/>
    <use xlink:href="#DejaVuSans-4a" transform="translate(2655.890625 0)"/>
   </g>
  </g>
  <g id="text_37">
   <!-- Points are certified at 7 driver values; connecting lines guide the eye. The continuum theorem uses 232 parameter boxes. -->
   <g transform="translate(156.516328 381.024) scale(0.09 -0.09)">
    <defs>
     <path id="DejaVuSans-33" d="M 1259 4147 
L 1259 2394 
L 2053 2394 
Q 2494 2394 2734 2622 
Q 2975 2850 2975 3272 
Q 2975 3691 2734 3919 
Q 2494 4147 2053 4147 
L 1259 4147 
z
M 628 4666 
L 2053 4666 
Q 2838 4666 3239 4311 
Q 3641 3956 3641 3272 
Q 3641 2581 3239 2228 
Q 2838 1875 2053 1875 
L 1259 1875 
L 1259 0 
L 628 0 
L 628 4666 
z
" transform="scale(0.015625)"/>
     <path id="DejaVuSans-1a" d="M 525 4666 
L 3525 4666 
L 3525 4397 
L 1831 0 
L 1172 0 
L 2766 4134 
L 525 4134 
L 525 4666 
z
" transform="scale(0.015625)"/>
     <path id="DejaVuSans-1e" d="M 750 3309 
L 1409 3309 
L 1409 2516 
L 750 2516 
L 750 3309 
z
M 750 794 
L 1409 794 
L 1409 256 
L 897 -744 
L 494 -744 
L 750 256 
L 750 794 
z
" transform="scale(0.015625)"/>
     <path id="DejaVuSans-37" d="M -19 4666 
L 3928 4666 
L 3928 4134 
L 2272 4134 
L 2272 0 
L 1638 0 
L 1638 4134 
L -19 4134 
L -19 4666 
z
" transform="scale(0.015625)"/>
     <path id="DejaVuSans-50" d="M 3328 2828 
Q 3544 3216 3844 3400 
Q 4144 3584 4550 3584 
Q 5097 3584 5394 3201 
Q 5691 2819 5691 2113 
L 5691 0 
L 5113 0 
L 5113 2094 
Q 5113 2597 4934 2840 
Q 4756 3084 4391 3084 
Q 3944 3084 3684 2787 
Q 3425 2491 3425 1978 
L 3425 0 
L 2847 0 
L 2847 2094 
Q 2847 2600 2669 2842 
Q 2491 3084 2119 3084 
Q 1678 3084 1418 2786 
Q 1159 2488 1159 1978 
L 1159 0 
L 581 0 
L 581 3500 
L 1159 3500 
L 1159 2956 
Q 1356 3278 1631 3431 
Q 1906 3584 2284 3584 
Q 2666 3584 2933 3390 
Q 3200 3197 3328 2828 
z
" transform="scale(0.015625)"/>
     <path id="DejaVuSans-45" d="M 3116 1747 
Q 3116 2381 2855 2742 
Q 2594 3103 2138 3103 
Q 1681 3103 1420 2742 
Q 1159 2381 1159 1747 
Q 1159 1113 1420 752 
Q 1681 391 2138 391 
Q 2594 391 2855 752 
Q 3116 1113 3116 1747 
z
M 1159 2969 
Q 1341 3281 1617 3432 
Q 1894 3584 2278 3584 
Q 2916 3584 3314 3078 
Q 3713 2572 3713 1747 
Q 3713 922 3314 415 
Q 2916 -91 2278 -91 
Q 1894 -91 1617 61 
Q 1341 213 1159 525 
L 1159 0 
L 581 0 
L 581 4863 
L 1159 4863 
L 1159 2969 
z
" transform="scale(0.015625)"/>
    </defs>
    <use xlink:href="#DejaVuSans-33"/>
    <use xlink:href="#DejaVuSans-52" transform="translate(56.734375 0)"/>
    <use xlink:href="#DejaVuSans-4c" transform="translate(117.921875 0)"/>
    <use xlink:href="#DejaVuSans-51" transform="translate(145.703125 0)"/>
    <use xlink:href="#DejaVuSans-57" transform="translate(209.078125 0)"/>
    <use xlink:href="#DejaVuSans-56" transform="translate(248.28125 0)"/>
    <use xlink:href="#DejaVuSans-3" transform="translate(300.375 0)"/>
    <use xlink:href="#DejaVuSans-44" transform="translate(332.15625 0)"/>
    <use xlink:href="#DejaVuSans-55" transform="translate(393.4375 0)"/>
    <use xlink:href="#DejaVuSans-48" transform="translate(432.34375 0)"/>
    <use xlink:href="#DejaVuSans-3" transform="translate(493.875 0)"/>
    <use xlink:href="#DejaVuSans-46" transform="translate(525.65625 0)"/>
    <use xlink:href="#DejaVuSans-48" transform="translate(580.640625 0)"/>
    <use xlink:href="#DejaVuSans-55" transform="translate(642.171875 0)"/>
    <use xlink:href="#DejaVuSans-57" transform="translate(683.28125 0)"/>
    <use xlink:href="#DejaVuSans-4c" transform="translate(722.484375 0)"/>
    <use xlink:href="#DejaVuSans-13af" transform="translate(750.265625 0)"/>
    <use xlink:href="#DejaVuSans-48" transform="translate(813.25 0)"/>
    <use xlink:href="#DejaVuSans-47" transform="translate(874.78125 0)"/>
    <use xlink:href="#DejaVuSans-3" transform="translate(938.265625 0)"/>
    <use xlink:href="#DejaVuSans-44" transform="translate(970.046875 0)"/>
    <use xlink:href="#DejaVuSans-57" transform="translate(1031.328125 0)"/>
    <use xlink:href="#DejaVuSans-3" transform="translate(1070.53125 0)"/>
    <use xlink:href="#DejaVuSans-1a" transform="translate(1102.3125 0)"/>
    <use xlink:href="#DejaVuSans-3" transform="translate(1165.9375 0)"/>
    <use xlink:href="#DejaVuSans-47" transform="translate(1197.71875 0)"/>
    <use xlink:href="#DejaVuSans-55" transform="translate(1261.203125 0)"/>
    <use xlink:href="#DejaVuSans-4c" transform="translate(1302.3125 0)"/>
    <use xlink:href="#DejaVuSans-59" transform="translate(1330.09375 0)"/>
    <use xlink:href="#DejaVuSans-48" transform="translate(1389.28125 0)"/>
    <use xlink:href="#DejaVuSans-55" transform="translate(1450.8125 0)"/>
    <use xlink:href="#DejaVuSans-3" transform="translate(1491.921875 0)"/>
    <use xlink:href="#DejaVuSans-59" transform="translate(1523.703125 0)"/>
    <use xlink:href="#DejaVuSans-44" transform="translate(1582.890625 0)"/>
    <use xlink:href="#DejaVuSans-4f" transform="translate(1644.171875 0)"/>
    <use xlink:href="#DejaVuSans-58" transform="translate(1671.953125 0)"/>
    <use xlink:href="#DejaVuSans-48" transform="translate(1735.328125 0)"/>
    <use xlink:href="#DejaVuSans-56" transform="translate(1796.859375 0)"/>
    <use xlink:href="#DejaVuSans-1e" transform="translate(1848.953125 0)"/>
    <use xlink:href="#DejaVuSans-3" transform="translate(1882.640625 0)"/>
    <use xlink:href="#DejaVuSans-46" transform="translate(1914.421875 0)"/>
    <use xlink:href="#DejaVuSans-52" transform="translate(1969.40625 0)"/>
    <use xlink:href="#DejaVuSans-51" transform="translate(2030.59375 0)"/>
    <use xlink:href="#DejaVuSans-51" transform="translate(2093.96875 0)"/>
    <use xlink:href="#DejaVuSans-48" transform="translate(2157.34375 0)"/>
    <use xlink:href="#DejaVuSans-46" transform="translate(2218.875 0)"/>
    <use xlink:href="#DejaVuSans-57" transform="translate(2273.859375 0)"/>
    <use xlink:href="#DejaVuSans-4c" transform="translate(2313.0625 0)"/>
    <use xlink:href="#DejaVuSans-51" transform="translate(2340.84375 0)"/>
    <use xlink:href="#DejaVuSans-4a" transform="translate(2404.21875 0)"/>
    <use xlink:href="#DejaVuSans-3" transform="translate(2467.703125 0)"/>
    <use xlink:href="#DejaVuSans-4f" transform="translate(2499.484375 0)"/>
    <use xlink:href="#DejaVuSans-4c" transform="translate(2527.265625 0)"/>
    <use xlink:href="#DejaVuSans-51" transform="translate(2555.046875 0)"/>
    <use xlink:href="#DejaVuSans-48" transform="translate(2618.421875 0)"/>
    <use xlink:href="#DejaVuSans-56" transform="translate(2679.953125 0)"/>
    <use xlink:href="#DejaVuSans-3" transform="translate(2732.046875 0)"/>
    <use xlink:href="#DejaVuSans-4a" transform="translate(2763.828125 0)"/>
    <use xlink:href="#DejaVuSans-58" transform="translate(2827.3125 0)"/>
    <use xlink:href="#DejaVuSans-4c" transform="translate(2890.6875 0)"/>
    <use xlink:href="#DejaVuSans-47" transform="translate(2918.46875 0)"/>
    <use xlink:href="#DejaVuSans-48" transform="translate(2981.953125 0)"/>
    <use xlink:href="#DejaVuSans-3" transform="translate(3043.484375 0)"/>
    <use xlink:href="#DejaVuSans-57" transform="translate(3075.265625 0)"/>
    <use xlink:href="#DejaVuSans-4b" transform="translate(3114.46875 0)"/>
    <use xlink:href="#DejaVuSans-48" transform="translate(3177.84375 0)"/>
    <use xlink:href="#DejaVuSans-3" transform="translate(3239.375 0)"/>
    <use xlink:href="#DejaVuSans-48" transform="translate(3271.15625 0)"/>
    <use xlink:href="#DejaVuSans-5c" transform="translate(3332.6875 0)"/>
    <use xlink:href="#DejaVuSans-48" transform="translate(3391.875 0)"/>
    <use xlink:href="#DejaVuSans-11" transform="translate(3453.40625 0)"/>
    <use xlink:href="#DejaVuSans-3" transform="translate(3485.1875 0)"/>
    <use xlink:href="#DejaVuSans-37" transform="translate(3516.96875 0)"/>
    <use xlink:href="#DejaVuSans-4b" transform="translate(3578.046875 0)"/>
    <use xlink:href="#DejaVuSans-48" transform="translate(3641.421875 0)"/>
    <use xlink:href="#DejaVuSans-3" transform="translate(3702.953125 0)"/>
    <use xlink:href="#DejaVuSans-46" transform="translate(3734.734375 0)"/>
    <use xlink:href="#DejaVuSans-52" transform="translate(3789.71875 0)"/>
    <use xlink:href="#DejaVuSans-51" transform="translate(3850.90625 0)"/>
    <use xlink:href="#DejaVuSans-57" transform="translate(3914.28125 0)"/>
    <use xlink:href="#DejaVuSans-4c" transform="translate(3953.484375 0)"/>
    <use xlink:href="#DejaVuSans-51" transform="translate(3981.265625 0)"/>
    <use xlink:href="#DejaVuSans-58" transform="translate(4044.640625 0)"/>
    <use xlink:href="#DejaVuSans-58" transform="translate(4108.015625 0)"/>
    <use xlink:href="#DejaVuSans-50" transform="translate(4171.390625 0)"/>
    <use xlink:href="#DejaVuSans-3" transform="translate(4268.796875 0)"/>
    <use xlink:href="#DejaVuSans-57" transform="translate(4300.578125 0)"/>
    <use xlink:href="#DejaVuSans-4b" transform="translate(4339.78125 0)"/>
    <use xlink:href="#DejaVuSans-48" transform="translate(4403.15625 0)"/>
    <use xlink:href="#DejaVuSans-52" transform="translate(4464.6875 0)"/>
    <use xlink:href="#DejaVuSans-55" transform="translate(4525.875 0)"/>
    <use xlink:href="#DejaVuSans-48" transform="translate(4564.78125 0)"/>
    <use xlink:href="#DejaVuSans-50" transform="translate(4626.3125 0)"/>
    <use xlink:href="#DejaVuSans-3" transform="translate(4723.71875 0)"/>
    <use xlink:href="#DejaVuSans-58" transform="translate(4755.5 0)"/>
    <use xlink:href="#DejaVuSans-56" transform="translate(4818.875 0)"/>
    <use xlink:href="#DejaVuSans-48" transform="translate(4870.96875 0)"/>
    <use xlink:href="#DejaVuSans-56" transform="translate(4932.5 0)"/>
    <use xlink:href="#DejaVuSans-3" transform="translate(4984.59375 0)"/>
    <use xlink:href="#DejaVuSans-15" transform="translate(5016.375 0)"/>
    <use xlink:href="#DejaVuSans-16" transform="translate(5080 0)"/>
    <use xlink:href="#DejaVuSans-15" transform="translate(5143.625 0)"/>
    <use xlink:href="#DejaVuSans-3" transform="translate(5207.25 0)"/>
    <use xlink:href="#DejaVuSans-53" transform="translate(5239.03125 0)"/>
    <use xlink:href="#DejaVuSans-44" transform="translate(5302.515625 0)"/>
    <use xlink:href="#DejaVuSans-55" transform="translate(5363.796875 0)"/>
    <use xlink:href="#DejaVuSans-44" transform="translate(5404.90625 0)"/>
    <use xlink:href="#DejaVuSans-50" transform="translate(5466.1875 0)"/>
    <use xlink:href="#DejaVuSans-48" transform="translate(5563.59375 0)"/>
    <use xlink:href="#DejaVuSans-57" transform="translate(5625.125 0)"/>
    <use xlink:href="#DejaVuSans-48" transform="translate(5664.328125 0)"/>
    <use xlink:href="#DejaVuSans-55" transform="translate(5725.859375 0)"/>
    <use xlink:href="#DejaVuSans-3" transform="translate(5766.96875 0)"/>
    <use xlink:href="#DejaVuSans-45" transform="translate(5798.75 0)"/>
    <use xlink:href="#DejaVuSans-52" transform="translate(5862.234375 0)"/>
    <use xlink:href="#DejaVuSans-5b" transform="translate(5920.34375 0)"/>
    <use xlink:href="#DejaVuSans-48" transform="translate(5976.453125 0)"/>
    <use xlink:href="#DejaVuSans-56" transform="translate(6037.984375 0)"/>
    <use xlink:href="#DejaVuSans-11" transform="translate(6090.078125 0)"/>
   </g>
  </g>
  <g id="text_38">
   <!-- $W(\ell,\nu,\epsilon)=C(\nu,\epsilon)\ell^{3/2}+O(\ell^2)$; panel B concerns the leading coefficient. -->
   <g transform="translate(274.005 395.136) scale(0.09 -0.09)">
    <defs>
     <path id="DejaVuSans-Oblique-3a" d="M 616 4666 
L 1228 4666 
L 1453 697 
L 3213 4666 
L 3916 4666 
L 4147 697 
L 5888 4666 
L 6528 4666 
L 4453 0 
L 3659 0 
L 3444 3891 
L 1697 0 
L 903 0 
L 616 4666 
z
" transform="scale(0.015625)"/>
     <path id="DejaVuSans-Oblique-ab2" d="M 950 838 
Q 1078 213 1350 213 
Q 1531 213 1766 572 
L 2181 572 
Q 1994 253 1775 88 
Q 1538 -91 1319 -91 
Q 831 -91 634 344 
L 400 0 
L -88 0 
Q 250 459 500 888 
Q 469 1131 469 1397 
Q 469 1872 566 2347 
Q 931 4131 1256 4497 
Q 1481 4750 1866 4750 
Q 2256 4750 2256 4209 
Q 2253 3966 2197 3675 
Q 1972 2484 950 838 
z
M 947 1656 
Q 1531 2744 1709 3613 
Q 1803 4072 1803 4191 
Q 1803 4406 1725 4406 
Q 1384 4134 1081 2516 
Q 997 2063 947 1656 
z
" transform="scale(0.015625)"/>
     <path id="DejaVuSans-Oblique-32" d="M 2919 4238 
Q 2400 4238 2003 3986 
Q 1606 3734 1313 3219 
Q 1125 2891 1026 2522 
Q 928 2153 928 1778 
Q 928 1128 1239 775 
Q 1550 422 2119 422 
Q 2631 422 3032 676 
Q 3434 931 3719 1434 
Q 3909 1772 4009 2142 
Q 4109 2513 4109 2881 
Q 4109 3528 3796 3883 
Q 3484 4238 2919 4238 
z
M 2100 -91 
Q 1241 -91 748 418 
Q 256 928 256 1813 
Q 256 2319 448 2847 
Q 641 3375 978 3788 
Q 1375 4272 1862 4511 
Q 2350 4750 2938 4750 
Q 3794 4750 4287 4245 
Q 4781 3741 4781 2869 
Q 4781 2331 4593 1812 
Q 4406 1294 4056 872 
Q 3656 384 3173 146 
Q 2691 -91 2100 -91 
z
" transform="scale(0.015625)"/>
     <path id="DejaVuSans-25" d="M 1259 2228 
L 1259 519 
L 2272 519 
Q 2781 519 3026 730 
Q 3272 941 3272 1375 
Q 3272 1813 3026 2020 
Q 2781 2228 2272 2228 
L 1259 2228 
z
M 1259 4147 
L 1259 2741 
L 2194 2741 
Q 2656 2741 2882 2914 
Q 3109 3088 3109 3444 
Q 3109 3797 2882 3972 
Q 2656 4147 2194 4147 
L 1259 4147 
z
M 628 4666 
L 2241 4666 
Q 2963 4666 3353 4366 
Q 3744 4066 3744 3513 
Q 3744 3084 3544 2831 
Q 3344 2578 2956 2516 
Q 3422 2416 3680 2098 
Q 3938 1781 3938 1306 
Q 3938 681 3513 340 
Q 3088 0 2303 0 
L 628 0 
L 628 4666 
z
" transform="scale(0.015625)"/>
     <path id="DejaVuSans-49" d="M 2375 4863 
L 2375 4384 
L 1825 4384 
Q 1516 4384 1395 4259 
Q 1275 4134 1275 3809 
L 1275 3500 
L 2222 3500 
L 2222 3053 
L 1275 3053 
L 1275 0 
L 697 0 
L 697 3053 
L 147 3053 
L 147 3500 
L 697 3500 
L 697 3744 
Q 697 4328 969 4595 
Q 1241 4863 1831 4863 
L 2375 4863 
z
" transform="scale(0.015625)"/>
    </defs>
    <use xlink:href="#DejaVuSans-Oblique-3a" transform="translate(0 0.746875)"/>
    <use xlink:href="#DejaVuSans-b" transform="translate(98.876953 0.746875)"/>
    <use xlink:href="#DejaVuSans-Oblique-ab2" transform="translate(137.890625 0.746875)"/>
    <use xlink:href="#DejaVuSans-f" transform="translate(179.199219 0.746875)"/>
    <use xlink:href="#DejaVuSans-Oblique-351" transform="translate(230.46875 0.746875)"/>
    <use xlink:href="#DejaVuSans-f" transform="translate(286.328125 0.746875)"/>
    <use xlink:href="#DejaVuSans-Oblique-349" transform="translate(337.597656 0.746875)"/>
    <use xlink:href="#DejaVuSans-c" transform="translate(391.650391 0.746875)"/>
    <use xlink:href="#DejaVuSans-20" transform="translate(450.146484 0.746875)"/>
    <use xlink:href="#DejaVuSans-Oblique-26" transform="translate(553.417969 0.746875)"/>
    <use xlink:href="#DejaVuSans-b" transform="translate(623.242188 0.746875)"/>
    <use xlink:href="#DejaVuSans-Oblique-351" transform="translate(662.255859 0.746875)"/>
    <use xlink:href="#DejaVuSans-f" transform="translate(718.115234 0.746875)"/>
    <use xlink:href="#DejaVuSans-Oblique-349" transform="translate(769.384766 0.746875)"/>
    <use xlink:href="#DejaVuSans-c" transform="translate(823.4375 0.746875)"/>
    <use xlink:href="#DejaVuSans-Oblique-ab2" transform="translate(862.451172 0.746875)"/>
    <use xlink:href="#DejaVuSans-16" transform="translate(910.960286 42.046875) scale(0.7)"/>
    <use xlink:href="#DejaVuSans-12" transform="translate(955.496419 42.046875) scale(0.7)"/>
    <use xlink:href="#DejaVuSans-15" transform="translate(979.080404 42.046875) scale(0.7)"/>
    <use xlink:href="#DejaVuSans-e" transform="translate(1045.833333 0.746875)"/>
    <use xlink:href="#DejaVuSans-Oblique-32" transform="translate(1149.104818 0.746875)"/>
    <use xlink:href="#DejaVuSans-b" transform="translate(1227.815755 0.746875)"/>
    <use xlink:href="#DejaVuSans-Oblique-ab2" transform="translate(1266.829427 0.746875)"/>
    <use xlink:href="#DejaVuSans-15" transform="translate(1315.338542 42.046875) scale(0.7)"/>
    <use xlink:href="#DejaVuSans-c" transform="translate(1362.609049 0.746875)"/>
    <use xlink:href="#DejaVuSans-1e" transform="translate(1401.622721 0.746875)"/>
    <use xlink:href="#DejaVuSans-3" transform="translate(1435.314128 0.746875)"/>
    <use xlink:href="#DejaVuSans-53" transform="translate(1467.101237 0.746875)"/>
    <use xlink:href="#DejaVuSans-44" transform="translate(1530.577799 0.746875)"/>
    <use xlink:href="#DejaVuSans-51" transform="translate(1591.857096 0.746875)"/>
    <use xlink:href="#DejaVuSans-48" transform="translate(1655.236003 0.746875)"/>
    <use xlink:href="#DejaVuSans-4f" transform="translate(1716.75944 0.746875)"/>
    <use xlink:href="#DejaVuSans-3" transform="translate(1744.542643 0.746875)"/>
    <use xlink:href="#DejaVuSans-25" transform="translate(1776.329753 0.746875)"/>
    <use xlink:href="#DejaVuSans-3" transform="translate(1844.933268 0.746875)"/>
    <use xlink:href="#DejaVuSans-46" transform="translate(1876.720378 0.746875)"/>
    <use xlink:href="#DejaVuSans-52" transform="translate(1931.700846 0.746875)"/>
    <use xlink:href="#DejaVuSans-51" transform="translate(1992.882487 0.746875)"/>
    <use xlink:href="#DejaVuSans-46" transform="translate(2056.261393 0.746875)"/>
    <use xlink:href="#DejaVuSans-48" transform="translate(2111.241862 0.746875)"/>
    <use xlink:href="#DejaVuSans-55" transform="translate(2172.765299 0.746875)"/>
    <use xlink:href="#DejaVuSans-51" transform="translate(2211.878581 0.746875)"/>
    <use xlink:href="#DejaVuSans-56" transform="translate(2275.257487 0.746875)"/>
    <use xlink:href="#DejaVuSans-3" transform="translate(2327.357096 0.746875)"/>
    <use xlink:href="#DejaVuSans-57" transform="translate(2359.144206 0.746875)"/>
    <use xlink:href="#DejaVuSans-4b" transform="translate(2398.35319 0.746875)"/>
    <use xlink:href="#DejaVuSans-48" transform="translate(2461.732096 0.746875)"/>
    <use xlink:href="#DejaVuSans-3" transform="translate(2523.255534 0.746875)"/>
    <use xlink:href="#DejaVuSans-4f" transform="translate(2555.042643 0.746875)"/>
    <use xlink:href="#DejaVuSans-48" transform="translate(2582.825846 0.746875)"/>
    <use xlink:href="#DejaVuSans-44" transform="translate(2644.349284 0.746875)"/>
    <use xlink:href="#DejaVuSans-47" transform="translate(2705.628581 0.746875)"/>
    <use xlink:href="#DejaVuSans-4c" transform="translate(2769.105143 0.746875)"/>
    <use xlink:href="#DejaVuSans-51" transform="translate(2796.888346 0.746875)"/>
    <use xlink:href="#DejaVuSans-4a" transform="translate(2860.267253 0.746875)"/>
    <use xlink:href="#DejaVuSans-3" transform="translate(2923.743815 0.746875)"/>
    <use xlink:href="#DejaVuSans-46" transform="translate(2955.530924 0.746875)"/>
    <use xlink:href="#DejaVuSans-52" transform="translate(3010.511393 0.746875)"/>
    <use xlink:href="#DejaVuSans-48" transform="translate(3071.693034 0.746875)"/>
    <use xlink:href="#DejaVuSans-49" transform="translate(3133.216471 0.746875)"/>
    <use xlink:href="#DejaVuSans-49" transform="translate(3168.421549 0.746875)"/>
    <use xlink:href="#DejaVuSans-4c" transform="translate(3203.626628 0.746875)"/>
    <use xlink:href="#DejaVuSans-46" transform="translate(3231.409831 0.746875)"/>
    <use xlink:href="#DejaVuSans-4c" transform="translate(3286.390299 0.746875)"/>
    <use xlink:href="#DejaVuSans-48" transform="translate(3314.173503 0.746875)"/>
    <use xlink:href="#DejaVuSans-51" transform="translate(3375.69694 0.746875)"/>
    <use xlink:href="#DejaVuSans-57" transform="translate(3439.075846 0.746875)"/>
    <use xlink:href="#DejaVuSans-11" transform="translate(3478.284831 0.746875)"/>
   </g>
  </g>
 </g>
 <defs>
  <clipPath id="p5f477185ec">
   <rect x="77.76" y="84.672" width="334.330435" height="225.792"/>
  </clipPath>
  <clipPath id="pa21e59ba8a">
   <rect x="512.389565" y="84.672" width="334.330435" height="225.792"/>
  </clipPath>
 </defs>
</svg>
